<svg width="30" height="15" viewBox="0 0 30 15" fill="none" xmlns="http://www.w3.org/2000/svg">
<path d="M0.343725 8.09514C0.344076 8.0955 0.34437 8.09591 0.34478 8.09626L6.46806 14.19C6.92679 14.6465 7.66876 14.6448 8.12538 14.186C8.58194 13.7273 8.58019 12.9853 8.12146 12.5288L4.01029 8.43751L28.8281 8.43751C29.4754 8.43751 30 7.91286 30 7.26563C30 6.61841 29.4754 6.09376 28.8281 6.09376L4.01035 6.09376L8.1214 2.00251C8.58013 1.54595 8.58189 0.803976 8.12532 0.345245C7.6687 -0.113602 6.92667 -0.115184 6.468 0.341261L0.344721 6.43501C0.34437 6.43536 0.344078 6.43577 0.343668 6.43612C-0.115297 6.89421 -0.113832 7.63858 0.343725 8.09514Z" fill="black"/>
</svg>
