<svg width="22" height="12" viewBox="0 0 22 12" fill="none" xmlns="http://www.w3.org/2000/svg">
<path d="M20.7768 6.91806L16.1764 11.5185C15.9228 11.7721 15.5905 11.8988 15.2582 11.8988C14.9259 11.8988 14.5936 11.7721 14.34 11.5185C13.833 11.0114 13.833 10.1893 14.34 9.68223L16.7239 7.29838H1.68052C0.963415 7.29838 0.38208 6.71705 0.38208 5.99995C0.38208 5.28284 0.963415 4.70151 1.68052 4.70151H16.7239L14.34 2.31766C13.833 1.81058 13.833 0.988465 14.34 0.481384C14.8472 -0.0256959 15.6692 -0.0256959 16.1764 0.481384L20.7768 5.08183C21.2838 5.58887 21.2838 6.41102 20.7768 6.91806Z" fill="white"/>
</svg>
