<svg width="22" height="12" viewBox="0 0 22 12" fill="none" xmlns="http://www.w3.org/2000/svg">
<path d="M20.7767 6.91812L16.1763 11.5186C15.9227 11.7721 15.5905 11.8989 15.2581 11.8989C14.9258 11.8989 14.5935 11.7721 14.34 11.5186C13.8329 11.0115 13.8329 10.1894 14.34 9.68229L16.7239 7.29844H1.68046C0.963354 7.29844 0.382019 6.71711 0.382019 6.00001C0.382019 5.2829 0.963354 4.70157 1.68046 4.70157H16.7239L14.34 2.31772C13.8329 1.81064 13.8329 0.988526 14.34 0.481445C14.8471 -0.0256348 15.6692 -0.0256348 16.1763 0.481445L20.7767 5.08189C21.2838 5.58893 21.2838 6.41108 20.7767 6.91812Z" fill="#115F95"/>
</svg>
