<svg width="22" height="12" viewBox="0 0 22 12" fill="none" xmlns="http://www.w3.org/2000/svg">
<path d="M0.762297 5.08188L5.36274 0.481432C5.6163 0.227872 5.94858 0.101112 6.2809 0.101112C6.61322 0.101112 6.9455 0.227872 7.19906 0.481432C7.7061 0.988512 7.7061 1.81063 7.19906 2.31771L4.81517 4.70156L19.8586 4.70156C20.5757 4.70156 21.157 5.28289 21.157 5.99999C21.157 6.7171 20.5757 7.29843 19.8586 7.29843L4.81517 7.29843L7.19906 9.68228C7.7061 10.1894 7.7061 11.0115 7.19906 11.5186C6.69194 12.0256 5.86986 12.0256 5.36274 11.5186L0.762297 6.91811C0.255257 6.41107 0.255257 5.58892 0.762297 5.08188Z" fill="#115F95"/>
</svg>
