<svg width="70" height="111" viewBox="0 0 70 111" fill="none" xmlns="http://www.w3.org/2000/svg">
<path d="M69.2678 1.29623e-05L18.1603 9.38207L51.8392 48.9514L69.2678 1.29623e-05ZM5.24089 110.325C7.37111 109.714 8.32455 108.034 8.69509 107.165C9.07779 106.268 9.24239 105.327 9.33596 104.635C9.52627 103.226 9.59802 101.306 9.69026 99.3638C9.8844 95.2766 10.2095 89.6694 11.6389 82.818C14.4826 69.1869 21.7727 50.2859 41.6918 29.3475L35.1711 23.1443C14.0404 45.3563 5.99703 65.792 2.82853 80.98C1.25176 88.5382 0.901108 94.7112 0.700403 98.9368C0.595231 101.151 0.539787 102.521 0.416976 103.43C0.353981 103.896 0.315543 103.871 0.416685 103.634C0.505674 103.426 1.09905 102.15 2.75868 101.674L5.24089 110.325Z" fill="white"/>
</svg>
