<svg width="144" height="204" viewBox="0 0 144 204" fill="none" xmlns="http://www.w3.org/2000/svg">
<path d="M125 204L143.405 155.407L92.1203 163.764L125 204ZM1.54123 0.12356C-0.236402 2.26129 0.608521 4.62395 0.835785 5.1832C1.16004 5.98107 1.63842 6.64488 1.97227 7.07457C2.69067 7.99917 3.72346 9.06542 4.86451 10.1773C7.18701 12.4405 10.6835 15.5833 14.869 19.4049C23.3232 27.1241 35.056 38.0311 47.6658 51.7924C72.9288 79.3625 101.474 118.138 114.14 165.191L122.831 162.852C109.631 113.816 80.0206 73.7802 54.3013 45.7121C41.42 31.6544 29.4549 20.5355 20.9375 12.7586C16.6371 8.83214 13.3293 5.85939 11.1456 3.73151C10.0335 2.64789 9.38775 1.94976 9.0792 1.55264C8.89958 1.32147 9.02739 1.43508 9.17359 1.79484C9.22284 1.916 10.0622 3.95266 8.46128 5.87793L1.54123 0.12356Z" fill="white"/>
</svg>
