<svg width="97" height="204" viewBox="0 0 97 204" fill="none" xmlns="http://www.w3.org/2000/svg">
<path d="M66.0001 204L96.345 161.82L44.6433 156.63L66.0001 204ZM1.41266 0.285043C0.390176 1.63614 0.287759 3.11737 0.416429 4.1355C0.536448 5.08503 0.876387 5.88196 1.1461 6.42023C1.69001 7.50567 2.51584 8.63018 3.34121 9.66811C5.02427 11.7846 7.62612 14.6581 10.5882 18.0239C16.6322 24.8915 24.9073 34.6137 33.2171 47.4502C49.8131 73.0866 66.5967 111.219 65.5452 163.617L74.5434 163.797C75.6383 109.234 58.1231 69.3619 40.7722 42.5594C32.1087 29.1764 23.4983 19.0706 17.3445 12.0781C14.2077 8.51378 11.8826 5.94913 10.3855 4.06651C9.62081 3.10487 9.29329 2.58955 9.19243 2.38828C9.13979 2.2832 9.28449 2.52506 9.3454 3.00697C9.41497 3.55748 9.38959 4.65855 8.58925 5.71611L1.41266 0.285043Z" fill="white"/>
</svg>
