<svg width="79" height="55" viewBox="0 0 79 55" fill="none" xmlns="http://www.w3.org/2000/svg">
<g filter="url(#filter0_d_0_220)">
<path fill-rule="evenodd" clip-rule="evenodd" d="M4 12C4 6.47716 8.47715 2 14 2L66.1012 2C71.6553 2 74.9972 8.15815 71.9703 12.8149L53.1406 41.7837C50.5581 45.7568 46.1411 48.1538 41.4024 48.1538H11C7.13401 48.1538 4 45.0198 4 41.1538L4 12Z" fill="#D85C27"/>
<path d="M4.5 12C4.5 6.7533 8.7533 2.5 14 2.5H66.1012C71.2585 2.5 74.3618 8.21828 71.5511 12.5424L52.7214 41.5112C50.2311 45.3424 45.9718 47.6538 41.4024 47.6538H11C7.41015 47.6538 4.5 44.7437 4.5 41.1538V12Z" stroke="white"/>
</g>
<path d="M42.7246 34.9866L39.953 34.2436L39.2104 37.0157L36.6394 32.5616L36.0901 31.6105L38.1107 29.0633L39.4111 29.247L39.9604 30.1992L42.7246 34.9866Z" fill="white"/>
<path d="M37.6824 31.6105L39.7152 35.1315L39.2104 37.0157L36.0901 31.6105L38.1107 29.5941L37.6824 31.6105Z" fill="white"/>
<path d="M30.4185 31.6381L29.8686 32.5902L27.3135 37.0157L26.5704 34.2436L23.7988 34.9866L26.563 30.1976L27.1123 29.2459L28.3687 29.0533L30.4185 31.6381Z" fill="white"/>
<path d="M28.4578 29.6732L25.6825 34.4813L23.7988 34.9866L27.1123 29.2459L28.3687 29.584L28.4578 29.6732Z" fill="white"/>
<path d="M28.3687 29.0533L30.4185 31.6381L29.8686 32.5902L27.8183 30.5351L26.563 30.1976L27.1123 29.2459L28.3687 29.0533Z" fill="white"/>
<path d="M39.9606 30.1992L38.6592 30.5463L36.6397 32.5616L36.0903 31.6105L38.1109 29.0633L39.4113 29.247L39.9606 30.1992Z" fill="white"/>
<path d="M38.9385 32.8842C38.8009 32.8842 38.6672 32.8128 38.5934 32.6851L37.2389 30.3391C37.129 30.1487 37.1943 29.9053 37.3847 29.7954C37.575 29.6855 37.8185 29.7506 37.9284 29.9411L39.2829 32.2871C39.3928 32.4775 39.3276 32.7209 39.1372 32.8308C39.0745 32.867 39.0061 32.8842 38.9385 32.8842Z" fill="white"/>
<path d="M27.5848 32.8843C27.5173 32.8843 27.4488 32.8671 27.3861 32.8309C27.1957 32.721 27.1305 32.4775 27.2404 32.2872L28.5891 29.9513C28.699 29.7609 28.9425 29.6957 29.1329 29.8056C29.3233 29.9155 29.3885 30.159 29.2786 30.3494L27.9299 32.6852C27.8562 32.813 27.7224 32.8843 27.5848 32.8843Z" fill="white"/>
<path d="M36.0903 31.6105L33.2385 30.8942L30.4186 31.6381L28.3689 29.5839L25.5574 28.8275L24.8068 26.0145L22.7502 23.9536L23.5067 21.1422L22.7561 18.3292L24.8169 16.2726L25.5734 13.4611L28.3864 12.7105L30.4472 10.6539L33.2587 11.4104L36.0717 10.6597L38.1283 12.7206L40.9398 13.477L41.6903 16.2901L43.7469 18.3509L42.9905 21.1623L43.7411 23.9754L41.6803 26.0319L40.9238 28.8434L38.1108 29.594L36.0903 31.6105Z" fill="#FEE97D"/>
<path d="M26.4091 16.2725L24.3481 18.3292L25.0986 21.1422L24.3423 23.9537L26.399 26.0146L27.1495 28.8277L29.961 29.584L31.6827 31.3095L30.4185 31.6381L28.3687 29.584L25.5572 28.8277L24.8067 26.0146L22.75 23.9537L23.5064 21.1422L22.7559 18.3292L24.8168 16.2725L25.5731 13.461L28.3862 12.7105L30.4471 10.6538L31.7013 10.9914L29.9785 12.7105L27.1654 13.461L26.4091 16.2725Z" fill="#FBD94F"/>
<path d="M33.2486 28.5688C31.6092 28.5688 29.9868 28.0072 28.6804 26.9873C27.3387 25.9399 26.4229 24.5113 26.0321 22.856C25.5781 20.9328 25.9025 18.9442 26.9455 17.2565C27.9886 15.5688 29.6222 14.3893 31.5453 13.9354C32.1066 13.8029 32.6799 13.7357 33.2495 13.7357C34.8889 13.7357 36.5113 14.2974 37.8177 15.3173C39.1594 16.3647 40.0752 17.7933 40.466 19.4487C41.4054 23.4281 38.9322 27.4298 34.9527 28.3692C34.3916 28.5017 33.8183 28.5688 33.2486 28.5688Z" fill="#D85C27"/>
<path d="M33.2487 26.9181C31.9755 26.9181 30.7139 26.4807 29.6961 25.6862C28.6538 24.8724 27.9422 23.7626 27.6387 22.4768C27.286 20.9827 27.5385 19.4369 28.3498 18.1243C29.161 16.8118 30.4306 15.8946 31.9246 15.5419C32.3617 15.4387 32.8075 15.3864 33.2495 15.3864C34.5227 15.3864 35.7843 15.8239 36.802 16.6184C37.8445 17.4321 38.556 18.542 38.8595 19.8279C39.5898 22.9214 37.6671 26.0324 34.5735 26.7627C34.1366 26.8658 33.6908 26.9181 33.2487 26.9181Z" fill="#FEE97D"/>
<path d="M34.0494 26.8612C33.7829 26.8989 33.5149 26.918 33.2485 26.918C31.9757 26.918 30.7141 26.4807 29.6961 25.6861C28.6537 24.8724 27.9425 23.7626 27.6389 22.4766C27.2859 20.9825 27.5386 19.4369 28.3496 18.1244C29.1611 16.8118 30.4307 15.8946 31.9248 15.5417C32.3616 15.4387 32.8074 15.3867 33.2496 15.3867C33.5149 15.3867 33.7793 15.4058 34.0415 15.443C33.8658 15.4679 33.6906 15.5008 33.5171 15.5417C32.023 15.8946 30.7534 16.8118 29.9418 18.1244C29.1308 19.4369 28.8782 20.9825 29.2311 22.4766C29.5347 23.7626 30.246 24.8724 31.2884 25.6861C32.0946 26.315 33.0531 26.7206 34.0494 26.8612Z" fill="#FBD94F"/>
<path d="M33.5782 17.6811L34.5228 19.5951L36.635 19.902C36.9366 19.9458 37.0571 20.3165 36.8388 20.5293L35.3104 22.0191L35.6712 24.1227C35.7228 24.4232 35.4074 24.6523 35.1376 24.5104L33.2485 23.5172L31.3593 24.5104C31.0895 24.6523 30.7741 24.4232 30.8257 24.1227L31.1865 22.0191L29.6581 20.5293C29.4398 20.3166 29.5603 19.9459 29.8619 19.902L31.9741 19.5951L32.9187 17.6811C33.0535 17.4078 33.4433 17.4078 33.5782 17.6811Z" fill="#D85C27"/>
<path d="M32.2598 20.529L33.7883 22.0191L33.508 23.6536L33.2485 23.517L31.3591 24.5101C31.0898 24.6525 30.7744 24.4229 30.8258 24.1225L31.1868 22.0191L29.6583 20.529C29.4398 20.3163 29.5601 19.9456 29.8619 19.902L31.9744 19.5951L32.9188 17.6809C33.0534 17.4077 33.4436 17.4077 33.5783 17.6809L34.5227 19.5951L34.5494 19.599L32.4635 19.9021C32.1616 19.9456 32.0413 20.3164 32.2598 20.529Z" fill="#F5A30F"/>
<defs>
<filter id="filter0_d_0_220" x="0" y="0" width="77.1128" height="54.1538" filterUnits="userSpaceOnUse" color-interpolation-filters="sRGB">
<feFlood flood-opacity="0" result="BackgroundImageFix"/>
<feColorMatrix in="SourceAlpha" type="matrix" values="0 0 0 0 0 0 0 0 0 0 0 0 0 0 0 0 0 0 127 0" result="hardAlpha"/>
<feOffset dy="2"/>
<feGaussianBlur stdDeviation="2"/>
<feColorMatrix type="matrix" values="0 0 0 0 0.522956 0 0 0 0 0.522956 0 0 0 0 0.522956 0 0 0 0.5 0"/>
<feBlend mode="normal" in2="BackgroundImageFix" result="effect1_dropShadow_0_220"/>
<feBlend mode="normal" in="SourceGraphic" in2="effect1_dropShadow_0_220" result="shape"/>
</filter>
</defs>
</svg>
