<svg width="18" height="18" viewBox="0 0 18 18" fill="none" xmlns="http://www.w3.org/2000/svg">
<g opacity="0.5">
<path fill-rule="evenodd" clip-rule="evenodd" d="M17.1 2.70001H0.9C0.402944 2.70001 0 3.10296 0 3.60001C0 4.09707 0.402944 4.50001 0.9 4.50001H2.7V15.3C2.70045 16.791 3.90902 17.9996 5.4 18H12.6C14.091 17.9996 15.2996 16.791 15.3 15.3V4.50001H17.1C17.5971 4.50001 18 4.09707 18 3.60001C18 3.10296 17.5971 2.70001 17.1 2.70001ZM8.1 12.6C8.1 13.0971 7.69706 13.5 7.2 13.5C6.70294 13.5 6.3 13.0971 6.3 12.6V8.10001C6.3 7.60296 6.70294 7.20001 7.2 7.20001C7.69706 7.20001 8.1 7.60296 8.1 8.10001V12.6ZM10.8 13.5C11.2971 13.5 11.7 13.0971 11.7 12.6V8.10001C11.7 7.60296 11.2971 7.20001 10.8 7.20001C10.3029 7.20001 9.9 7.60296 9.9 8.10001V12.6C9.9 13.0971 10.3029 13.5 10.8 13.5Z" fill="black"/>
<path d="M7.1998 1.8H10.7998C11.2969 1.8 11.6998 1.39706 11.6998 0.9C11.6998 0.402944 11.2969 0 10.7998 0H7.1998C6.70275 0 6.2998 0.402944 6.2998 0.9C6.2998 1.39706 6.70275 1.8 7.1998 1.8Z" fill="black"/>
</g>
</svg>
