<svg width="19" height="19" viewBox="0 0 19 19" fill="none" xmlns="http://www.w3.org/2000/svg">
<g opacity="0.5">
<path fill-rule="evenodd" clip-rule="evenodd" d="M0.0241992 4.77356V5.18272C0.0241992 5.33337 0.146325 5.45549 0.296974 5.45549H16.1179C16.2685 5.45549 16.3907 5.33337 16.3907 5.18272V4.77356C16.4979 4.02233 16.2452 3.26447 15.7086 2.7279C15.172 2.19132 14.4142 1.93863 13.6629 2.04581H12.5264V0.681936C12.5264 0.305313 12.2211 0 11.8444 0C11.4678 0 11.1625 0.305313 11.1625 0.681936V2.04581H5.25238V0.681936C5.25238 0.305313 4.94707 0 4.57044 0C4.19382 0 3.88851 0.305313 3.88851 0.681936V2.04581H2.75195C2.00072 1.93863 1.24286 2.19132 0.706285 2.7279C0.169709 3.26447 -0.0829841 4.02233 0.0241992 4.77356ZM9.5804 14.9935C9.73655 12.434 11.778 10.3933 14.3376 10.2381C14.9116 10.2093 15.4862 10.2801 16.0361 10.4473C16.118 10.4731 16.2073 10.4587 16.277 10.4087C16.3468 10.3586 16.3889 10.2785 16.3907 10.1927V7.09214C16.3907 6.94149 16.2685 6.81936 16.1179 6.81936H0.296974C0.146325 6.81936 0.0241992 6.94149 0.0241992 7.09214V14.3207C-0.0829841 15.0719 0.169709 15.8297 0.706285 16.3663C1.24286 16.9029 2.00072 17.1556 2.75195 17.0484H9.53494C9.62081 17.0466 9.70083 17.0045 9.75092 16.9348C9.80101 16.865 9.81531 16.7757 9.78953 16.6938C9.62242 16.1433 9.55167 15.5681 9.5804 14.9935ZM4.58863 14.3207C4.08646 14.3232 3.67734 13.9181 3.67483 13.416C3.67232 12.9138 4.07737 12.5047 4.57954 12.5022H4.58863C5.09079 12.5022 5.49788 12.9093 5.49788 13.4114C5.49788 13.9136 5.09079 14.3207 4.58863 14.3207ZM3.67483 9.77897C3.67734 10.2811 4.08646 10.6862 4.58863 10.6837C5.09079 10.6837 5.49788 10.2766 5.49788 9.77442C5.49788 9.27226 5.09079 8.86517 4.58863 8.86517H4.57954C4.07737 8.86769 3.67232 9.2768 3.67483 9.77897ZM8.22562 10.6837C7.72346 10.6862 7.31434 10.2811 7.31183 9.77897C7.30932 9.2768 7.71437 8.86769 8.21653 8.86517H8.22562C8.72779 8.86517 9.13487 9.27226 9.13487 9.77442C9.13487 10.2766 8.72779 10.6837 8.22562 10.6837ZM14.5722 11.5929C12.5635 11.5929 10.9352 13.2213 10.9352 15.2299C10.9352 17.2386 12.5635 18.8669 14.5722 18.8669C16.5808 18.8669 18.2092 17.2386 18.2092 15.2299C18.2092 13.2213 16.5808 11.5929 14.5722 11.5929ZM15.225 16.5247C15.4025 16.7022 15.6903 16.7022 15.8679 16.5247C16.0453 16.3472 16.0453 16.0594 15.8679 15.8818L15.0268 15.0417V13.866C15.0268 13.615 14.8233 13.4114 14.5722 13.4114C14.3211 13.4114 14.1176 13.615 14.1176 13.866V15.2299C14.1173 15.3506 14.1651 15.4664 14.2503 15.5518L15.225 16.5247Z" fill="black"/>
</g>
</svg>
