<svg width="18" height="20" viewBox="0 0 18 20" fill="none" xmlns="http://www.w3.org/2000/svg">
<path fill-rule="evenodd" clip-rule="evenodd" d="M16.4274 5.3125C16.508 5.3125 16.5754 5.37547 16.5814 5.45687L17.6633 19.832C17.6665 19.8753 17.6517 19.9181 17.6225 19.95C17.5932 19.9819 17.5521 20 17.5092 20H0.818222C0.775258 20 0.734149 19.9819 0.704939 19.9498C0.675576 19.918 0.660894 19.8752 0.664139 19.8319L1.74596 5.45687C1.75199 5.37547 1.81937 5.3125 1.90004 5.3125H4.68187V4.53125C4.68187 2.03266 6.69251 0 9.1637 0C11.6349 0 13.6455 2.03266 13.6455 4.53125V5.3125H16.4274ZM9.1637 1.25C7.37406 1.25 5.91823 2.72203 5.91823 4.53125V5.3125H12.4092V4.53125C12.4092 2.72203 10.9533 1.25 9.1637 1.25ZM5.30005 9.6875C4.44773 9.6875 3.75459 8.98656 3.75459 8.125C3.75459 7.50141 4.06368 6.93953 4.68187 6.69297V8.125C4.68187 8.46969 4.95928 8.75 5.30005 8.75C5.64083 8.75 5.91823 8.46969 5.91823 8.125V6.69391C6.53642 6.94047 6.84551 7.50656 6.84551 8.125C6.84551 8.98656 6.15237 9.6875 5.30005 9.6875ZM11.4819 8.125C11.4819 8.98656 12.175 9.6875 13.0273 9.6875C13.8797 9.6875 14.5728 8.98656 14.5728 8.125C14.5728 7.50656 14.2637 6.94047 13.6455 6.69391V8.125C13.6455 8.46969 13.3681 8.75 13.0273 8.75C12.6866 8.75 12.4092 8.46969 12.4092 8.125V6.69297C11.791 6.93953 11.4819 7.50141 11.4819 8.125Z" fill="#B2B2B2"/>
</svg>
