<svg width="20" height="20" viewBox="0 0 20 20" fill="none" xmlns="http://www.w3.org/2000/svg">
<path d="M1.04828 11.3125H8.12988C8.70819 11.3124 9.17713 10.8439 9.17773 10.2656V1.04832C9.17722 0.469746 8.70846 0.000775194 8.12988 0H1.04828C0.469593 0.000667349 0.000645786 0.469632 0 1.04832V10.2656C0.000732884 10.844 0.469862 11.3125 1.04828 11.3125Z" fill="#B2B2B2"/>
<path d="M8.33051 12.7969H0.849023C0.379809 12.7985 0.000233793 13.1792 0 13.6484V18.9961C0.000560564 19.4645 0.380574 19.8439 0.849023 19.8438H8.33051C8.79904 19.8441 9.17919 19.4646 9.17969 18.9961V13.6484C9.17952 13.1791 8.79981 12.7984 8.33051 12.7969V12.7969Z" fill="#B2B2B2"/>
<path d="M18.7954 8.53125H11.7141C11.1357 8.53136 10.6666 8.99974 10.6656 9.57812V18.7969C10.6666 19.3753 11.1357 19.8436 11.7141 19.8438H18.7954C19.3738 19.8437 19.8429 19.3753 19.8438 18.7969V9.57812C19.8429 8.99972 19.3738 8.53127 18.7954 8.53125V8.53125Z" fill="#B2B2B2"/>
<path d="M18.9947 0H11.5132C11.0445 0.000753198 10.6649 0.380553 10.6643 0.84918V6.19531C10.6645 6.66448 11.044 7.04518 11.5132 7.04688H18.9947C19.4639 7.04528 19.8436 6.66456 19.8438 6.19531V0.849063C19.8431 0.3804 19.4634 0.000645453 18.9947 0V0Z" fill="#B2B2B2"/>
</svg>
