<svg width="18" height="22" viewBox="0 0 18 22" fill="none" xmlns="http://www.w3.org/2000/svg">
<path d="M16.6696 20.3067L14.3565 19.6865L13.7368 22L11.5912 18.2829L11.1328 17.4891L12.8191 15.3634L13.9043 15.5167L14.3627 16.3113L16.6696 20.3067Z" fill="#F07281"/>
<path d="M12.4616 17.4891L14.1581 20.4275L13.7368 22L11.1328 17.4891L12.8191 15.8063L12.4616 17.4891Z" fill="#EB5569"/>
<path d="M6.39936 17.5122L5.94046 18.3068L3.80813 22L3.18801 19.6865L0.875 20.3067L3.18182 16.31L3.64025 15.5158L4.68873 15.355L6.39936 17.5122Z" fill="#F07281"/>
<path d="M4.76311 15.8724L2.44697 19.885L0.875 20.3067L3.64025 15.5158L4.68873 15.7979L4.76311 15.8724Z" fill="#EB5569"/>
<path d="M4.68855 15.355L6.39918 17.5122L5.94028 18.3068L4.22922 16.5917L3.18164 16.31L3.64007 15.5158L4.68855 15.355Z" fill="#EB5569"/>
<path d="M14.3627 16.3113L13.2767 16.601L11.5912 18.2829L11.1328 17.4891L12.8191 15.3634L13.9043 15.5167L14.3627 16.3113Z" fill="#EB5569"/>
<path d="M13.5098 18.5521C13.395 18.5521 13.2833 18.4925 13.2218 18.386L12.0914 16.4281C11.9997 16.2692 12.0541 16.0661 12.213 15.9743C12.3719 15.8827 12.5751 15.937 12.6668 16.0959L13.7972 18.0538C13.889 18.2127 13.8345 18.4158 13.6756 18.5076C13.6233 18.5377 13.5662 18.5521 13.5098 18.5521Z" fill="#EB5569"/>
<path d="M4.03511 18.5522C3.97873 18.5522 3.92163 18.5378 3.86929 18.5076C3.71039 18.4159 3.65595 18.2127 3.74769 18.0538L4.87321 16.1045C4.96495 15.9455 5.16815 15.8911 5.32701 15.9829C5.4859 16.0746 5.54034 16.2778 5.44861 16.4367L4.32308 18.386C4.26155 18.4926 4.14992 18.5522 4.03511 18.5522Z" fill="#EB5569"/>
<path d="M11.1328 17.4891L8.75282 16.8913L6.39951 17.5121L4.68896 15.7979L2.3427 15.1666L1.7163 12.819L0 11.0991L0.631297 8.75288L0.00485547 6.40533L1.72472 4.68903L2.35602 2.34276L4.70357 1.71636L6.4234 6.10352e-05L8.76971 0.631358L11.1173 0.0049165L12.8336 1.72478L15.1798 2.35604L15.8062 4.70364L17.5225 6.42346L16.8912 8.76972L17.5176 11.1173L15.7978 12.8336L15.1665 15.1798L12.819 15.8063L11.1328 17.4891Z" fill="#FEE97D"/>
<path d="M3.05366 4.68896L1.33371 6.40535L1.96002 8.75295L1.32885 11.0992L3.04524 12.8192L3.67155 15.1668L6.01782 15.7979L7.45469 17.2379L6.39964 17.5121L4.68901 15.7979L2.34274 15.1668L1.71643 12.8192L0 11.0992L0.631211 8.75295L0.00489844 6.40535L1.72481 4.68896L2.35602 2.3427L4.70362 1.71639L6.42353 0L7.4702 0.281703L6.03243 1.71639L3.68483 2.3427L3.05366 4.68896Z" fill="#FBD94F"/>
<path d="M8.76168 14.9507C7.39351 14.9507 6.03957 14.482 4.94932 13.6309C3.8296 12.7568 3.0654 11.5646 2.73927 10.1831C2.36037 8.57818 2.63112 6.91859 3.50153 5.51016C4.37199 4.10173 5.73531 3.11741 7.34023 2.73855C7.80859 2.62799 8.28709 2.57196 8.76241 2.57196C10.1306 2.57196 11.4845 3.04066 12.5747 3.89179C13.6945 4.7659 14.4587 5.95811 14.7849 7.3396C15.5688 10.6606 13.5048 14.0002 10.1838 14.7842C9.71559 14.8947 9.23713 14.9507 8.76168 14.9507Z" fill="#D85C27"/>
<path d="M8.76152 13.5732C7.69904 13.5732 6.64613 13.2081 5.79681 12.5451C4.92691 11.866 4.33312 10.9398 4.07982 9.86671C3.78548 8.61984 3.9962 7.32983 4.67322 6.23443C5.35023 5.13903 6.40972 4.37363 7.65658 4.07929C8.02134 3.99318 8.39337 3.94952 8.76225 3.94952C9.82474 3.94952 10.8776 4.31463 11.7269 4.97764C12.5969 5.65676 13.1907 6.58299 13.444 7.65609C14.0535 10.2378 12.4489 12.834 9.86715 13.4435C9.50252 13.5295 9.13054 13.5732 8.76152 13.5732Z" fill="#FEE97D"/>
<path d="M9.42976 13.5256C9.2074 13.5571 8.9837 13.573 8.76138 13.573C7.6992 13.573 6.64633 13.2081 5.7968 12.545C4.92685 11.8659 4.33333 10.9397 4.07994 9.8665C3.78539 8.61964 3.99624 7.3298 4.67304 6.2344C5.35031 5.139 6.40979 4.37359 7.6567 4.07904C8.02125 3.99311 8.39331 3.94971 8.76229 3.94971C8.98375 3.94971 9.20435 3.96565 9.42315 3.99667C9.27654 4.01751 9.13036 4.04497 8.98551 4.07904C7.73864 4.37359 6.67912 5.139 6.00184 6.2344C5.32504 7.3298 5.1142 8.61964 5.40875 9.8665C5.66209 10.9397 6.25566 11.8659 7.12561 12.545C7.79841 13.0698 8.59836 13.4082 9.42976 13.5256Z" fill="#FBD94F"/>
<path d="M9.0364 5.86457L9.8247 7.46181L11.5874 7.71794C11.8391 7.75451 11.9396 8.06388 11.7575 8.24147L10.482 9.48478L10.7831 11.2403C10.8261 11.491 10.5629 11.6822 10.3378 11.5639L8.76118 10.735L7.18462 11.5639C6.95946 11.6822 6.69628 11.491 6.73929 11.2403L7.04037 9.48478L5.76489 8.24147C5.58274 8.06393 5.68325 7.75455 5.935 7.71794L7.69766 7.46181L8.48597 5.86457C8.59851 5.63645 8.92382 5.63645 9.0364 5.86457Z" fill="#D85C27"/>
<path d="M7.93615 8.24117L9.21172 9.48469L8.97779 10.8487L8.76123 10.7347L7.18445 11.5636C6.95972 11.6824 6.6965 11.4908 6.73938 11.24L7.04063 9.48469L5.76506 8.24117C5.5827 8.06367 5.68312 7.75429 5.93496 7.71794L7.69793 7.46176L8.48606 5.86435C8.59842 5.63636 8.92408 5.63636 9.03645 5.86435L9.82458 7.46176L9.84684 7.46503L8.10613 7.71798C7.85416 7.75429 7.75374 8.06371 7.93615 8.24117Z" fill="#F5A30F"/>
</svg>
