<svg width="17" height="18" viewBox="0 0 17 18" fill="none" xmlns="http://www.w3.org/2000/svg">
<path d="M8.20606 16.8365C7.81024 16.8952 7.4052 16.9259 6.99307 16.9259C5.48546 16.9259 4.07306 16.5189 2.85901 15.8095C3.05089 15.0974 3.42007 14.4644 3.91218 13.9544C3.89127 13.9761 3.87045 13.9979 3.84999 14.0199H8.91974L8.20606 16.8365Z" fill="#E9E3D5"/>
<path d="M11.1271 15.8095C10.9492 15.1494 10.6178 14.5693 10.2112 14.103C9.94705 13.8072 9.67333 13.5566 9.32728 13.3364C9.30355 13.3192 9.18684 13.2485 9.14932 13.2265C7.38589 12.1925 5.19368 12.5678 3.84998 14.02C5.01403 14.497 6.27273 14.7149 7.53713 14.6566C7.58434 14.6687 7.62875 14.6741 7.6709 14.6741C7.96646 14.6741 8.20608 14.9137 8.20608 15.2093V16.8365C9.25803 16.6805 10.245 16.3249 11.1271 15.8095Z" fill="#D3CDBF"/>
<path d="M10.1418 16.2994C9.86089 16.4163 9.57215 16.518 9.27649 16.6036V14.6741C9.70891 15.1115 10.0166 15.6725 10.1418 16.2994Z" fill="#A19B8D"/>
<path d="M4.70966 14.6741V16.6036C4.414 16.5181 4.12526 16.4163 3.84436 16.2994C3.96955 15.6725 4.2772 15.1115 4.70966 14.6741Z" fill="#B6B0A2"/>
<ellipse cx="7.61829" cy="15.4949" rx="0.75" ry="0.267574" fill="#3E4954"/>
<ellipse cx="7.61829" cy="16.5653" rx="0.75" ry="0.267574" fill="#3E4954"/>
<path d="M12.1308 8.86813C12.1308 6.10214 9.88703 3.15953 7.13577 3.15953C4.85392 3.15953 2.92957 5.17782 2.33244 7.43671C2.11416 7.32565 1.86729 7.26258 1.60555 7.26258C0.71884 7.26258 0 7.98139 0 8.86813C0 9.75488 0.718805 10.4737 1.60555 10.4737C1.65154 10.4737 1.69692 10.4713 1.74192 10.4675C1.78668 11.3867 2.27851 12.2617 3.14051 12.7727C5.59315 14.2266 8.67839 14.2266 11.131 12.7727C12.5076 11.9567 12.9312 10.2269 12.1308 8.86813Z" fill="#FFB578"/>
<path d="M12.666 7.26259C12.4041 7.26259 12.1571 7.32569 11.9387 7.43693C11.5431 5.93994 10.5653 4.5513 9.28895 3.78307C9.28895 3.78307 10.6661 5.40771 10.6661 8.51155C10.6661 9.46052 10.1582 10.3758 9.26413 10.9058C7.01195 12.2409 4.22645 12.3498 1.88708 11.233C2.09669 11.8544 2.52352 12.4069 3.14055 12.7727C5.59319 14.2266 8.67843 14.2266 11.131 12.7727C11.9971 12.2593 12.4855 11.3843 12.5297 10.4675C12.5747 10.4713 12.62 10.4737 12.666 10.4737C13.5527 10.4737 14.2715 9.75488 14.2715 8.86814C14.2715 7.98139 13.5527 7.26259 12.666 7.26259Z" fill="#F7A16E"/>
<circle cx="1.60562" cy="8.86831" r="0.535184" fill="#F7A16E"/>
<circle cx="12.666" cy="8.8683" r="0.535184" fill="#CE795F"/>
<ellipse cx="8.91971" cy="9.08098" rx="0.535184" ry="0.75" fill="#3E4954"/>
<ellipse cx="5.35183" cy="9.08098" rx="0.535184" ry="0.75" fill="#3E4954"/>
<path d="M5.9307 7.08521C5.55249 6.96209 5.1523 6.96209 4.77325 7.08524C4.63269 7.13091 4.55574 7.28187 4.60144 7.42239C4.63818 7.53545 4.74308 7.60738 4.85586 7.60738C4.88325 7.60738 4.91113 7.60313 4.93859 7.59424C5.20936 7.50627 5.49511 7.5062 5.76501 7.59409C5.90559 7.6399 6.05656 7.56302 6.10229 7.4225C6.14807 7.28198 6.07125 7.13095 5.9307 7.08521Z" fill="#46525E"/>
<path d="M9.49857 7.08521C9.12036 6.96209 8.72017 6.96209 8.34112 7.08524C8.20056 7.13091 8.12361 7.28187 8.16931 7.42239C8.20605 7.53545 8.31095 7.60738 8.42374 7.60738C8.45112 7.60738 8.479 7.60313 8.50646 7.59424C8.77723 7.50627 9.06298 7.5062 9.33288 7.59409C9.47347 7.6399 9.62443 7.56302 9.67013 7.4225C9.7159 7.28198 9.63909 7.13095 9.49857 7.08521Z" fill="#46525E"/>
<path d="M6.56775 9.55687C6.37857 9.61822 6.20311 9.70769 6.04557 9.82209C5.888 9.93656 5.74846 10.076 5.63132 10.2373C5.54445 10.3568 5.57096 10.5241 5.69056 10.611C5.81013 10.6979 5.97751 10.6714 6.06434 10.5518C6.23169 10.3215 6.46284 10.1535 6.7328 10.0659C6.87339 10.0204 6.95039 9.86941 6.90482 9.72886C6.85923 9.58827 6.7083 9.51128 6.56775 9.55687Z" fill="#46525E"/>
<path d="M8.64036 10.2372C8.52321 10.076 8.38368 9.93659 8.22611 9.82212C8.06857 9.70765 7.89311 9.61821 7.70393 9.5569C7.56334 9.5113 7.41245 9.58833 7.36689 9.72892C7.32126 9.86955 7.39839 10.0205 7.53895 10.066C7.80887 10.1535 8.04006 10.3215 8.20741 10.5519C8.29414 10.6713 8.46159 10.6979 8.58119 10.6111C8.70072 10.5242 8.72723 10.3568 8.64036 10.2372Z" fill="#46525E"/>
<path d="M2.33248 7.43474C2.6928 7.61804 2.97461 7.93322 3.11439 8.31674C3.17841 8.49245 3.39891 8.55264 3.53968 8.42955C4.21289 7.84107 4.63831 6.9763 4.63831 6.01186C4.63831 5.41227 4.47378 4.85121 4.18768 4.37094C4.18768 4.37098 2.02466 4.9686 2.33248 7.43474Z" fill="#596775"/>
<path d="M10.0839 4.37097C9.79787 4.85121 9.6333 5.4123 9.6333 6.01189C9.6333 6.97633 10.0587 7.8411 10.7319 8.42958C10.8728 8.55267 11.0932 8.49248 11.1572 8.31677C11.2969 7.93321 11.5788 7.61807 11.9391 7.43477C12.247 4.96859 10.0839 4.37097 10.0839 4.37097Z" fill="#46525E"/>
<rect x="2.49756" y="2.08719" width="9.27647" height="3.81586" fill="#E9E3D5"/>
<path d="M11.5778 0C11.319 0 2.83078 0 2.69381 0C1.79725 0 1.07043 0.72682 1.07043 1.62338C1.07043 2.51993 1.79725 3.24675 2.69381 3.24675C2.76261 3.24675 11.4006 3.24675 11.5778 3.24675C12.4744 3.24675 13.2012 2.51993 13.2012 1.62338C13.2012 0.72682 12.4744 0 11.5778 0Z" fill="#E9E3D5"/>
<path d="M13.2012 1.62338C13.2012 1.34146 13.1292 1.07638 13.0028 0.845367C12.6554 0.93368 12.3984 1.2485 12.3984 1.62338C12.3984 2.07584 12.0303 2.44399 11.5778 2.44399H2.69378C2.31891 2.44399 2.00408 2.70098 1.91577 3.0484C2.14678 3.17482 2.41186 3.24679 2.69378 3.24679H4.28147H7.13577C9.10403 3.24679 11.3966 3.24679 11.5778 3.24679C12.4744 3.24675 13.2012 2.51997 13.2012 1.62338Z" fill="#D3CDBF"/>
<path d="M2.92565 1.62338C2.92565 1.47558 2.80584 1.3558 2.65808 1.3558C2.51028 1.3558 2.3905 1.47562 2.3905 1.62338C2.3905 2.06825 2.5453 2.47746 2.80341 2.80076H3.61057C3.20184 2.56697 2.92565 2.12699 2.92565 1.62338Z" fill="#D3CDBF"/>
<path d="M11.881 1.62338C11.881 1.47558 11.7612 1.3558 11.6134 1.3558C11.4657 1.3558 11.3459 1.47562 11.3459 1.62338C11.3459 2.12699 11.0697 2.56697 10.661 2.80076H11.4682C11.7262 2.47746 11.881 2.06828 11.881 1.62338Z" fill="#D3CDBF"/>
<path d="M9.99002 1.3558C9.84222 1.3558 9.72244 1.47562 9.72244 1.62338C9.72244 2.12699 9.44625 2.56697 9.0376 2.80076H9.84475C10.1028 2.47743 10.2577 2.06825 10.2577 1.62338C10.2576 1.47562 10.1378 1.3558 9.99002 1.3558Z" fill="#D3CDBF"/>
<path d="M5.0664 1.62338C5.0664 1.47558 4.94659 1.3558 4.79882 1.3558C4.65106 1.3558 4.53125 1.47562 4.53125 1.62338C4.53125 2.06825 4.68604 2.47746 4.94416 2.80076H5.75131C5.34262 2.56697 5.0664 2.12699 5.0664 1.62338Z" fill="#D3CDBF"/>
<path d="M9.94271 18C9.84209 18 9.74573 17.943 9.7002 17.8458L9.56773 17.563C9.52368 17.4689 9.53806 17.3578 9.60465 17.278L11.7093 14.7576C11.8041 14.6442 11.9729 14.629 12.0863 14.7237C12.1997 14.8184 12.2149 14.9872 12.1201 15.1006L10.1246 17.4902L10.1849 17.6188C10.2475 17.7527 10.1899 17.912 10.056 17.9747C10.0193 17.9918 9.98071 18 9.94271 18Z" fill="#3E4954"/>
<path d="M11.1706 15.8265L11.2617 16.5399L10.738 16.343C10.5867 16.5236 10.3095 16.5252 10.1562 16.3463C10.0349 16.2047 10.0338 15.9963 10.1534 15.8534L10.5861 15.3369C10.7374 15.1563 11.0146 15.1547 11.1679 15.3336C11.2891 15.4751 11.2903 15.6836 11.1706 15.8265Z" fill="#FFB578"/>
<path d="M10.6425 17.4624C10.9202 17.7864 11.4079 17.8241 11.732 17.5464L11.9581 17.3527C12.407 16.9681 12.4591 16.2924 12.0745 15.8435C11.8315 15.5598 11.3919 15.5623 11.1521 15.8486L10.6369 16.4636C10.3945 16.7531 10.3968 17.1756 10.6425 17.4624Z" fill="#FFB578"/>
<path d="M16.2613 11.9624C16.2126 11.4225 15.9561 10.9343 15.5393 10.5876C15.4259 10.4933 15.2575 10.5086 15.1628 10.6219L11.5345 14.9668L13.121 16.2412C13.1704 16.2809 13.2296 16.3002 13.2884 16.3002C13.3651 16.3002 13.4411 16.2674 13.494 16.204L15.797 13.4443C16.1451 13.0287 16.31 12.5024 16.2613 11.9624Z" fill="#8B9BA9"/>
<path d="M15.5393 10.5876C15.4259 10.4933 15.2575 10.5086 15.1628 10.6219L14.8194 11.0331L15.026 11.2049C15.2776 11.414 15.4323 11.7087 15.4617 12.0345C15.4911 12.3604 15.3916 12.678 15.1806 12.9299L12.6998 15.9029L13.121 16.2412C13.1704 16.2809 13.2296 16.3002 13.2885 16.3002C13.3651 16.3002 13.4412 16.2674 13.4941 16.204L15.797 13.4443C16.1451 13.0287 16.31 12.5024 16.2613 11.9624C16.2126 11.4225 15.9562 10.9343 15.5393 10.5876Z" fill="#6C7A88"/>
</svg>
