<svg width="79" height="55" viewBox="0 0 79 55" fill="none" xmlns="http://www.w3.org/2000/svg">
<g filter="url(#filter0_d_0_753)">
<path fill-rule="evenodd" clip-rule="evenodd" d="M4 12C4 6.47716 8.47715 2 14 2L66.1012 2C71.6553 2 74.9972 8.15815 71.9703 12.8149L53.1406 41.7837C50.5581 45.7568 46.1411 48.1538 41.4024 48.1538H11C7.13401 48.1538 4 45.0198 4 41.1538L4 12Z" fill="#175E95"/>
<path d="M4.5 12C4.5 6.7533 8.7533 2.5 14 2.5H66.1012C71.2585 2.5 74.3618 8.21828 71.5511 12.5424L52.7214 41.5112C50.2311 45.3424 45.9718 47.6538 41.4024 47.6538H11C7.41015 47.6538 4.5 44.7437 4.5 41.1538V12Z" stroke="white"/>
</g>
<path d="M33.472 37.0542C32.8852 37.1412 32.2848 37.1866 31.6739 37.1866C29.439 37.1866 27.3453 36.5833 25.5457 35.5317C25.8301 34.4761 26.3774 33.5378 27.1069 32.7819C27.0758 32.814 27.045 32.8462 27.0147 32.8789H34.5299L33.472 37.0542Z" fill="#E9E3D5"/>
<path d="M37.8023 35.5316C37.5386 34.5532 37.0473 33.6933 36.4446 33.0021C36.053 32.5635 35.6473 32.1921 35.1343 31.8657C35.0991 31.8402 34.9261 31.7353 34.8705 31.7028C32.2564 30.1699 29.0068 30.7264 27.0149 32.879C28.7405 33.5862 30.6063 33.9091 32.4806 33.8227C32.5506 33.8407 32.6164 33.8486 32.6789 33.8486C33.117 33.8486 33.4723 34.2038 33.4723 34.6419V37.0542C35.0316 36.8229 36.4946 36.2958 37.8023 35.5316Z" fill="#D3CDBF"/>
<path d="M36.3415 36.2579C35.9251 36.4312 35.4971 36.582 35.0588 36.7088V33.8486C35.6998 34.497 36.156 35.3286 36.3415 36.2579Z" fill="#A19B8D"/>
<path d="M28.289 33.8486V36.7088C27.8508 36.582 27.4227 36.4312 27.0063 36.2579C27.1919 35.3286 27.648 34.497 28.289 33.8486Z" fill="#B6B0A2"/>
<ellipse cx="32.6008" cy="35.0655" rx="1.11178" ry="0.396644" fill="#3E4954"/>
<ellipse cx="32.6008" cy="36.6521" rx="1.11178" ry="0.396644" fill="#3E4954"/>
<path d="M39.29 25.2421C39.29 21.1418 35.9639 16.7798 31.8855 16.7798C28.5029 16.7798 25.6503 19.7716 24.7652 23.1202C24.4416 22.9555 24.0756 22.862 23.6876 22.862C22.3732 22.862 21.3076 23.9276 21.3076 25.2421C21.3076 26.5565 22.3732 27.6221 23.6876 27.6221C23.7558 27.6221 23.8231 27.6185 23.8898 27.6129C23.9561 28.9755 24.6852 30.2726 25.963 31.0301C29.5987 33.1854 34.1722 33.1854 37.8079 31.0301C39.8485 29.8204 40.4765 27.2562 39.29 25.2421Z" fill="#FFB578"/>
<path d="M40.0831 22.862C39.6949 22.862 39.3287 22.9556 39.005 23.1205C38.4185 20.9014 36.969 18.8429 35.0771 17.7041C35.0771 17.7041 37.1185 20.1124 37.1185 24.7135C37.1185 26.1202 36.3655 27.4771 35.0403 28.2626C31.7017 30.2417 27.5725 30.4031 24.1047 28.7476C24.4154 29.6689 25.0482 30.4879 25.9628 31.0301C29.5986 33.1853 34.172 33.1853 37.8077 31.0301C39.0915 30.269 39.8156 28.9719 39.8811 27.6129C39.9477 27.6185 40.015 27.6221 40.0831 27.6221C41.3975 27.6221 42.4631 26.5566 42.4631 25.2421C42.4631 23.9276 41.3975 22.862 40.0831 22.862Z" fill="#F7A16E"/>
<circle cx="23.6876" cy="25.2423" r="0.793341" fill="#F7A16E"/>
<circle cx="40.0834" cy="25.2423" r="0.793341" fill="#CE795F"/>
<ellipse cx="34.5302" cy="25.5576" rx="0.793341" ry="1.11178" fill="#3E4954"/>
<ellipse cx="29.2411" cy="25.5576" rx="0.793341" ry="1.11178" fill="#3E4954"/>
<path d="M30.0991 22.5992C29.5385 22.4166 28.9453 22.4166 28.3834 22.5992C28.175 22.6669 28.0609 22.8907 28.1287 23.099C28.1831 23.2666 28.3386 23.3732 28.5058 23.3732C28.5464 23.3732 28.5877 23.3669 28.6285 23.3537C29.0298 23.2233 29.4534 23.2232 29.8535 23.3535C30.0619 23.4214 30.2857 23.3074 30.3535 23.0991C30.4214 22.8908 30.3075 22.667 30.0991 22.5992Z" fill="#46525E"/>
<path d="M35.3882 22.5992C34.8275 22.4166 34.2343 22.4166 33.6724 22.5992C33.4641 22.6669 33.35 22.8907 33.4177 23.099C33.4722 23.2666 33.6277 23.3732 33.7949 23.3732C33.8355 23.3732 33.8768 23.3669 33.9175 23.3537C34.3189 23.2233 34.7425 23.2232 35.1426 23.3535C35.351 23.4214 35.5748 23.3074 35.6425 23.0991C35.7104 22.8908 35.5965 22.667 35.3882 22.5992Z" fill="#46525E"/>
<path d="M31.0435 26.2631C30.7631 26.3541 30.503 26.4867 30.2694 26.6563C30.0359 26.826 29.829 27.0327 29.6554 27.2717C29.5266 27.4489 29.5659 27.6969 29.7432 27.8258C29.9204 27.9545 30.1685 27.9152 30.2973 27.738C30.5453 27.3966 30.888 27.1475 31.2882 27.0177C31.4966 26.9503 31.6107 26.7264 31.5432 26.5181C31.4756 26.3097 31.2519 26.1955 31.0435 26.2631Z" fill="#46525E"/>
<path d="M34.1157 27.2716C33.9421 27.0326 33.7352 26.8259 33.5016 26.6563C33.2681 26.4866 33.008 26.354 32.7276 26.2631C32.5192 26.1955 32.2955 26.3097 32.228 26.5181C32.1603 26.7266 32.2747 26.9504 32.483 27.0178C32.8831 27.1475 33.2259 27.3965 33.4739 27.738C33.6025 27.915 33.8507 27.9545 34.028 27.8258C34.2052 27.6969 34.2445 27.4489 34.1157 27.2716Z" fill="#46525E"/>
<path d="M24.7652 23.1172C25.2993 23.389 25.717 23.8562 25.9242 24.4247C26.0191 24.6852 26.346 24.7744 26.5547 24.5919C27.5526 23.7196 28.1833 22.4377 28.1833 21.008C28.1833 20.1192 27.9394 19.2875 27.5153 18.5756C27.5153 18.5756 24.3089 19.4615 24.7652 23.1172Z" fill="#596775"/>
<path d="M36.2557 18.5756C35.8316 19.2874 35.5876 20.1192 35.5876 21.008C35.5876 22.4377 36.2182 23.7196 37.2162 24.5919C37.425 24.7744 37.7518 24.6852 37.8467 24.4247C38.0538 23.8561 38.4716 23.389 39.0057 23.1172C39.4621 19.4615 36.2557 18.5756 36.2557 18.5756Z" fill="#46525E"/>
<rect x="25.0098" y="15.1902" width="13.7512" height="5.65652" fill="#E9E3D5"/>
<path d="M38.4702 12.0962C38.0865 12.0962 25.5038 12.0962 25.3007 12.0962C23.9717 12.0962 22.8943 13.1736 22.8943 14.5026C22.8943 15.8317 23.9717 16.9091 25.3007 16.9091C25.4027 16.9091 38.2075 16.9091 38.4702 16.9091C39.7992 16.9091 40.8766 15.8317 40.8766 14.5026C40.8766 13.1736 39.7992 12.0962 38.4702 12.0962Z" fill="#E9E3D5"/>
<path d="M40.8766 14.5027C40.8766 14.0848 40.7699 13.6918 40.5825 13.3494C40.0675 13.4803 39.6866 13.947 39.6866 14.5027C39.6866 15.1734 39.1409 15.7191 38.4701 15.7191H25.3008C24.7451 15.7191 24.2784 16.1001 24.1475 16.6151C24.4899 16.8025 24.8829 16.9092 25.3008 16.9092H27.6543H31.8854C34.8031 16.9092 38.2016 16.9092 38.4701 16.9092C39.7992 16.9091 40.8766 15.8317 40.8766 14.5027Z" fill="#D3CDBF"/>
<path d="M25.6446 14.5026C25.6446 14.2835 25.467 14.106 25.248 14.106C25.0289 14.106 24.8513 14.2836 24.8513 14.5026C24.8513 15.1621 25.0808 15.7687 25.4634 16.2479H26.6599C26.054 15.9014 25.6446 15.2491 25.6446 14.5026Z" fill="#D3CDBF"/>
<path d="M38.9198 14.5026C38.9198 14.2835 38.7422 14.106 38.5232 14.106C38.3041 14.106 38.1265 14.2836 38.1265 14.5026C38.1265 15.2491 37.7171 15.9014 37.1113 16.2479H38.3078C38.6903 15.7687 38.9198 15.1621 38.9198 14.5026Z" fill="#D3CDBF"/>
<path d="M36.1167 14.106C35.8976 14.106 35.72 14.2836 35.72 14.5026C35.72 15.2491 35.3106 15.9014 34.7048 16.2479H35.9013C36.2839 15.7686 36.5134 15.1621 36.5134 14.5026C36.5134 14.2836 36.3358 14.106 36.1167 14.106Z" fill="#D3CDBF"/>
<path d="M28.8179 14.5026C28.8179 14.2835 28.6403 14.106 28.4213 14.106C28.2023 14.106 28.0247 14.2836 28.0247 14.5026C28.0247 15.1621 28.2541 15.7687 28.6367 16.2479H29.8332C29.2274 15.9014 28.8179 15.2491 28.8179 14.5026Z" fill="#D3CDBF"/>
<path d="M36.0464 38.7789C35.8973 38.7789 35.7544 38.6943 35.6869 38.5503L35.4906 38.131C35.4253 37.9915 35.4466 37.8268 35.5453 37.7085L38.6652 33.9724C38.8056 33.8043 39.0559 33.7817 39.2239 33.9221C39.3921 34.0625 39.4146 34.3127 39.2742 34.4809L36.3161 38.0232L36.4054 38.2138C36.4983 38.4122 36.4128 38.6484 36.2144 38.7413C36.16 38.7668 36.1027 38.7788 36.0464 38.7789Z" fill="#3E4954"/>
<path d="M37.8666 35.557L38.0015 36.6145L37.2252 36.3227C37.001 36.5904 36.59 36.5927 36.3628 36.3275C36.183 36.1177 36.1813 35.8087 36.3587 35.5969L37.0001 34.8312C37.2243 34.5634 37.6353 34.5612 37.8625 34.8264C38.0422 35.0361 38.044 35.3451 37.8666 35.557Z" fill="#FFB578"/>
<path d="M37.0836 37.9819C37.4952 38.4623 38.2182 38.5181 38.6986 38.1066L39.0337 37.8194C39.6992 37.2493 39.7765 36.2476 39.2064 35.5821C38.8461 35.1616 38.1945 35.1653 37.8389 35.5897L37.0754 36.5013C36.7159 36.9306 36.7194 37.5568 37.0836 37.9819Z" fill="#FFB578"/>
<path d="M45.413 29.829C45.3408 29.0286 44.9607 28.3048 44.3428 27.791C44.1747 27.6512 43.925 27.6738 43.7847 27.8417L38.4062 34.2825L40.758 36.1717C40.8312 36.2305 40.9189 36.2591 41.0061 36.2591C41.1198 36.2591 41.2325 36.2105 41.311 36.1166L44.7248 32.0256C45.2408 31.4095 45.4852 30.6294 45.413 29.829Z" fill="#8B9BA9"/>
<path d="M44.3427 27.791C44.1746 27.6512 43.925 27.6738 43.7846 27.8417L43.2756 28.4513L43.5819 28.706C43.9548 29.016 44.1842 29.4529 44.2277 29.9359C44.2713 30.4189 44.1238 30.8897 43.811 31.2632L40.1335 35.6701L40.7579 36.1717C40.8312 36.2305 40.9189 36.2591 41.0061 36.2591C41.1197 36.2591 41.2325 36.2105 41.3109 36.1166L44.7247 32.0256C45.2408 31.4095 45.4852 30.6294 45.413 29.829C45.3408 29.0286 44.9607 28.3048 44.3427 27.791Z" fill="#6C7A88"/>
<defs>
<filter id="filter0_d_0_753" x="0" y="0" width="77.1128" height="54.1538" filterUnits="userSpaceOnUse" color-interpolation-filters="sRGB">
<feFlood flood-opacity="0" result="BackgroundImageFix"/>
<feColorMatrix in="SourceAlpha" type="matrix" values="0 0 0 0 0 0 0 0 0 0 0 0 0 0 0 0 0 0 127 0" result="hardAlpha"/>
<feOffset dy="2"/>
<feGaussianBlur stdDeviation="2"/>
<feColorMatrix type="matrix" values="0 0 0 0 0.522956 0 0 0 0 0.522956 0 0 0 0 0.522956 0 0 0 0.5 0"/>
<feBlend mode="normal" in2="BackgroundImageFix" result="effect1_dropShadow_0_753"/>
<feBlend mode="normal" in="SourceGraphic" in2="effect1_dropShadow_0_753" result="shape"/>
</filter>
</defs>
</svg>
