<svg width="15" height="18" viewBox="0 0 15 18" fill="none" xmlns="http://www.w3.org/2000/svg">
<path d="M12.9166 5.42278C12.8917 5.42278 12.8663 5.41926 12.8412 5.41188C12.6993 5.37026 12.6181 5.22158 12.6597 5.07976C12.671 5.04081 13.4089 2.4178 12.0824 0.415403C12.0008 0.292215 12.0345 0.126172 12.1577 0.0445392C12.2809 -0.0370936 12.447 -0.00334363 12.5286 0.119844C13.998 2.33789 13.2076 5.11341 13.1733 5.23048C13.139 5.34712 13.0324 5.42278 12.9166 5.42278Z" fill="#97DA7B"/>
<path d="M13.0302 5.64759C12.0252 5.28646 11.1791 5.51775 10.6328 6.14828C9.70266 7.22174 9.30153 9.00522 9.03406 9.89394C7.82222 13.9204 4.86013 15.8991 0.684305 16.4284C-0.570281 16.5874 0.0611252 17.2885 1.28365 17.6337C2.58633 18.0016 7.37539 18.7212 10.7988 15.9669C13.5227 13.7754 15.27 9.30359 14.4013 6.93691C14.1782 6.32906 13.6999 5.8882 13.0302 5.64759Z" fill="#FD5426"/>
<path d="M14.4013 6.93682C14.1782 6.32901 13.6999 5.88815 13.0303 5.64754C12.4317 5.43249 11.8896 5.4276 11.4335 5.59195C11.4895 5.60865 11.546 5.62701 11.6031 5.64754C12.2728 5.88815 12.751 6.32901 12.9741 6.93682C13.8429 9.30351 12.0956 13.7753 9.37164 15.9669C7.60483 17.3884 5.47433 17.8846 3.64697 17.9813C5.70003 18.0877 8.54522 17.78 10.7988 15.9669C13.5227 13.7753 15.27 9.30351 14.4013 6.93682Z" fill="#EF4424"/>
<path d="M11.0404 5.15512C10.6908 5.39598 10.8138 5.95296 11.2884 5.89675C11.8017 5.83596 12.2171 5.78734 12.8282 5.95753C13.3313 6.0977 13.6483 6.37645 13.9329 6.47039C14.3313 6.60191 14.588 6.24933 14.4075 5.87846C13.7806 4.58999 12.6302 4.05997 11.0404 5.15512Z" fill="#97DA7B"/>
<path d="M14.4076 5.87851C13.898 4.8311 13.0424 4.28495 11.8862 4.70545C12.3435 4.90985 12.7105 5.32378 12.9804 5.87851C13.0044 5.9278 13.0204 5.97674 13.0297 6.0243C13.4196 6.17273 13.6883 6.38975 13.9329 6.47047C14.3314 6.60196 14.588 6.24937 14.4076 5.87851Z" fill="#80D261"/>
<path d="M11.1873 6.87253C10.7035 7.50534 10.4259 8.30617 10.2217 9.06839C10.1325 9.40146 10.6487 9.54356 10.7378 9.21067C10.9313 8.48793 11.1905 7.74289 11.6494 7.14267C11.7379 7.02697 11.6665 6.84427 11.5534 6.77655C11.4166 6.6946 11.2746 6.75834 11.1873 6.87253Z" fill="#D73D24"/>
</svg>
