<svg width="15" height="15" viewBox="0 0 15 15" fill="none" xmlns="http://www.w3.org/2000/svg">
<path fill-rule="evenodd" clip-rule="evenodd" d="M0 7.5C0 3.35786 3.35786 0 7.5 0C11.6401 0.0048842 14.9951 3.35989 15 7.5C15 11.6421 11.6421 15 7.5 15C3.35786 15 0 11.6421 0 7.5ZM9.06341 10.0275C9.32966 10.2937 9.76125 10.2937 10.0275 10.0275C10.2937 9.76125 10.2937 9.32966 10.0275 9.06341L8.18182 7.21773V3.40909C8.18182 3.03253 7.87656 2.72727 7.5 2.72727C7.12344 2.72727 6.81818 3.03253 6.81818 3.40909V7.5C6.81822 7.68081 6.89008 7.85421 7.01795 7.98205L9.06341 10.0275Z" fill="#115F95"/>
</svg>
