<svg width="15" height="15" viewBox="0 0 15 15" fill="none" xmlns="http://www.w3.org/2000/svg">
<path fill-rule="evenodd" clip-rule="evenodd" d="M1.29487 10.8097C0.51382 11.5908 0.578945 12.7845 1.44033 13.4759C2.30171 14.1674 3.63316 14.0947 4.41421 13.3137L7.7063 10.0216L11.1303 13.4456C11.9113 14.2266 13.2428 14.2993 14.1042 13.6078C14.9655 12.9164 15.0307 11.7227 14.2496 10.9416L10.5179 7.20996L14.3137 3.41419C15.0948 2.63314 15.0296 1.43945 14.1683 0.748008C13.3069 0.0565655 11.9754 0.129205 11.1944 0.910254L7.7063 4.39832L4.35012 1.04214C3.56907 0.261094 2.23761 0.188455 1.37623 0.879897C0.514847 1.57134 0.449722 2.76503 1.23077 3.54608L4.89466 7.20996L1.29487 10.8097Z" fill="white"/>
</svg>
