<svg width="20" height="20" viewBox="0 0 20 20" fill="none" xmlns="http://www.w3.org/2000/svg">
<g opacity="0.5">
<path fill-rule="evenodd" clip-rule="evenodd" d="M0 9.99996C0 4.8453 4.47715 0.666626 10 0.666626C15.5201 0.672704 19.9935 4.84782 20 9.99996C20 15.1546 15.5228 19.3333 10 19.3333C4.47715 19.3333 0 15.1546 0 9.99996ZM14.1043 13.2255C14.1875 12.9288 14.0927 12.6134 13.8564 12.4003L11.2855 9.99996L13.8564 7.5996C14.0927 7.38656 14.1875 7.07109 14.1043 6.77444C14.0211 6.47778 13.7729 6.24611 13.455 6.16846C13.1372 6.09081 12.7992 6.17927 12.5709 6.39984L10 8.8002L7.42909 6.39984C7.20084 6.17927 6.86284 6.09081 6.54499 6.16846C6.22715 6.24611 5.97893 6.47778 5.89573 6.77444C5.81253 7.07109 5.90731 7.38656 6.14364 7.5996L8.71455 9.99996L6.14364 12.4003C5.79912 12.7333 5.80404 13.2625 6.15471 13.5897C6.50538 13.917 7.07238 13.9216 7.42909 13.6001L10 11.1997L12.5709 13.6001C12.7992 13.8207 13.1372 13.9091 13.455 13.8315C13.7729 13.7538 14.0211 13.5221 14.1043 13.2255Z" fill="#E02020"/>
</g>
</svg>
