<svg width="18" height="18" viewBox="0 0 18 18" fill="none" xmlns="http://www.w3.org/2000/svg">
<path d="M4.73481 17.9186C4.73544 17.9282 4.73963 17.9368 4.74603 17.9432L11.8393 12.3418L17.4337 5.25545C17.4337 5.25545 3.80393 3.80707 4.73481 17.9186Z" fill="#6FBF6B"/>
<path d="M17.4338 5.25543L4.74609 17.9432C4.75249 17.9496 4.76114 17.9538 4.77071 17.9544C18.8822 18.8853 17.4338 5.25543 17.4338 5.25543Z" fill="#009959"/>
<path d="M4.72082 17.9337C4.72803 17.94 4.73707 17.9431 4.74614 17.9431L5.80104 8.96669L4.74614 0C4.74614 0 -5.91578 8.61357 4.72082 17.9337Z" fill="#6FBF6B"/>
<path d="M4.74609 0V17.9432C4.75517 17.9432 4.7642 17.94 4.77141 17.9337C15.408 8.61357 4.74609 0 4.74609 0Z" fill="#009959"/>
</svg>
