<svg width="26" height="18" viewBox="0 0 26 18" fill="none" xmlns="http://www.w3.org/2000/svg">
<path d="M23.087 0H1.95652C0.877745 0 0 0.877745 0 1.95652V16.0435C0 17.1223 0.877745 18 1.95652 18H23.087C24.1657 18 25.0435 17.1223 25.0435 16.0435V1.95652C25.0435 0.877745 24.1657 0 23.087 0Z" fill="#5D647F"/>
<path d="M8.60869 7.82608H3.91304C3.4808 7.82608 3.13043 7.47572 3.13043 7.04348V3.91304C3.13043 3.4808 3.4808 3.13043 3.91304 3.13043H8.60869C9.04094 3.13043 9.3913 3.4808 9.3913 3.91304V7.04348C9.3913 7.47572 9.04094 7.82608 8.60869 7.82608Z" fill="#FFD100"/>
<path d="M5.86956 12.913H3.91304C3.4808 12.913 3.13043 12.5627 3.13043 12.1304V11.7391C3.13043 11.3069 3.4808 10.9565 3.91304 10.9565H5.86956C6.30181 10.9565 6.65217 11.3069 6.65217 11.7391V12.1304C6.65217 12.5627 6.30181 12.913 5.86956 12.913Z" fill="#B8BAC0"/>
<path d="M10.9565 12.913H9.00002C8.56777 12.913 8.21741 12.5627 8.21741 12.1304V11.7391C8.21741 11.3069 8.56777 10.9565 9.00002 10.9565H10.9565C11.3888 10.9565 11.7391 11.3069 11.7391 11.7391V12.1304C11.7391 12.5627 11.3888 12.913 10.9565 12.913Z" fill="#B8BAC0"/>
<path d="M16.0435 12.913H14.0869C13.6547 12.913 13.3043 12.5627 13.3043 12.1304V11.7391C13.3043 11.3069 13.6547 10.9565 14.0869 10.9565H16.0435C16.4757 10.9565 16.8261 11.3069 16.8261 11.7391V12.1304C16.8261 12.5627 16.4757 12.913 16.0435 12.913Z" fill="#B8BAC0"/>
<path d="M21.1304 12.913H19.1739C18.7417 12.913 18.3913 12.5627 18.3913 12.1304V11.7391C18.3913 11.3069 18.7417 10.9565 19.1739 10.9565H21.1304C21.5627 10.9565 21.913 11.3069 21.913 11.7391V12.1304C21.913 12.5627 21.5627 12.913 21.1304 12.913Z" fill="#B8BAC0"/>
<path d="M11.3478 15.2609H3.52174C3.30544 15.2609 3.13043 15.0857 3.13043 14.8696C3.13043 14.6535 3.30544 14.4783 3.52174 14.4783H11.3478C11.5641 14.4783 11.7391 14.6535 11.7391 14.8696C11.7391 15.0857 11.5641 15.2609 11.3478 15.2609Z" fill="#8A8895"/>
<path d="M16.4348 15.2609H12.913C12.6967 15.2609 12.5217 15.0857 12.5217 14.8696C12.5217 14.6535 12.6967 14.4783 12.913 14.4783H16.4348C16.6511 14.4783 16.8261 14.6535 16.8261 14.8696C16.8261 15.0857 16.6511 15.2609 16.4348 15.2609Z" fill="#8A8895"/>
<path d="M18 7.04357C17.5701 7.52385 16.9454 7.82608 16.2501 7.82608C14.9534 7.82608 13.9023 6.77494 13.9023 5.47826C13.9023 4.18157 14.9534 3.13043 16.2501 3.13043C16.9453 3.13043 17.5699 3.43257 17.9998 3.9127" fill="#FF4F19"/>
<path d="M9.39133 5.86956H5.47829V5.08695H9.39133V4.30435H5.47829V3.13043H4.69568V7.82608H5.47829V6.65217H9.39133V5.86956Z" fill="#FF9500"/>
<circle cx="19.5652" cy="5.47826" r="2.34783" fill="#FFD100"/>
</svg>
