<svg width="71" height="44" viewBox="0 0 71 44" fill="none" xmlns="http://www.w3.org/2000/svg">
<path fill-rule="evenodd" clip-rule="evenodd" d="M13.3525 22.0033C13.3525 34.1326 23.2199 44 35.3525 44C47.4852 44 57.3525 34.1326 57.3525 22.0033C57.3525 9.87064 47.4852 0 35.3525 0C23.2199 0 13.3525 9.87064 13.3525 22.0033ZM15.2694 22.0033C15.2694 10.9256 24.2716 1.91034 35.3525 1.91034C46.4319 1.91034 55.4389 10.9256 55.4389 22.0033C55.4389 33.0744 46.4302 42.0864 35.3525 42.0864C24.2716 42.0864 15.2694 33.0761 15.2694 22.0033Z" fill="white"/>
<path d="M54.031 22.0033C54.031 32.3155 45.6651 40.6749 35.3528 40.6749C25.0373 40.6749 16.6714 32.3155 16.6714 22.0033C16.6714 11.6845 25.0373 3.32184 35.3528 3.32184C45.6651 3.32184 54.031 11.6861 54.031 22.0033Z" fill="white"/>
<path d="M9.7398 2.36012L9.1837 12.8474H6.77779L6.5717 2.14423H4.90343L4.64337 12.8474H2.59074L1.73697 2.35685L0 2.36012V13.2154H0.0147201C0.124303 16.6746 1.83511 17.0132 4.14943 17.9978H4.10691V25.2499V25.2564V40.9726C6.09575 42.963 7.62828 40.9791 7.62828 40.9791L7.63319 24.9653H7.62828V18.0076C7.62828 18.0076 11.4228 16.6762 11.534 13.2154H11.5487L11.5455 2.36012H9.7398Z" fill="white"/>
<path d="M66.1932 1.63556H63.7366H61.2783V42.371H66.1932V20.8371H70.4522C72.8974 10.1323 66.1932 1.63556 66.1932 1.63556Z" fill="white"/>
</svg>
