<svg width="20" height="20" viewBox="0 0 20 20" fill="none" xmlns="http://www.w3.org/2000/svg">
<g opacity="0.3">
<path d="M13.4896 7.74711C12.6453 7.80047 11.9143 8.30616 11.4032 8.78679C11.8135 8.2174 12.2241 7.42672 12.1707 6.58135C12.067 4.93895 10.2574 3.71937 10.2574 3.71937C10.2574 3.71937 8.61557 5.15693 8.71932 6.79936C8.82216 8.4278 10.6067 9.64368 10.6305 9.65984L10.6296 9.66088C10.6296 9.66088 12.0749 11.3027 13.7115 11.1952C15.3567 11.0954 16.5759 9.28529 16.5759 9.28529C16.5759 9.28529 15.1387 7.64297 13.4896 7.74711Z" fill="black"/>
<path d="M16.4137 4.98105C15.5694 5.03438 14.8384 5.54004 14.3273 6.02065C14.7376 5.45128 15.1482 4.66063 15.0948 3.81529C14.9911 2.17286 13.1814 0.953278 13.1814 0.953278C13.1814 0.953278 11.5396 2.39087 11.6434 4.03327C11.7462 5.66174 13.5307 6.87759 13.5546 6.89375L13.5537 6.89478C13.5537 6.89478 14.999 8.53659 16.6356 8.42915C18.2808 8.32932 19.4999 6.5192 19.4999 6.5192C19.4999 6.5192 18.0627 4.87688 16.4137 4.98105Z" fill="black"/>
<path d="M18.7679 3.38186C19.8559 2.14716 19.4386 0.00518863 19.4386 0.00518863C19.4386 0.00518863 17.2612 -0.139209 16.1732 1.0955C15.0872 2.32794 15.5024 4.47219 15.5024 4.47219C15.5024 4.47219 17.6819 4.61431 18.7679 3.38186Z" fill="black"/>
<path d="M10.8569 10.6975C10.0121 10.7468 9.27741 11.2575 8.76601 11.7403C9.17739 11.1707 9.59022 10.3782 9.53668 9.53061C9.43296 7.88822 7.62334 6.66863 7.62334 6.66863C7.62334 6.66863 5.98153 8.10622 6.08528 9.74862C6.1886 11.3844 7.98989 12.6047 7.99791 12.6101L7.9969 12.6113C7.9969 12.6113 9.43791 14.2492 11.0788 14.1456C12.7197 14.042 13.9388 12.2319 13.9388 12.2319C13.9388 12.2319 12.5017 10.5896 10.8569 10.6975Z" fill="black"/>
<path d="M8.18548 13.5899C7.33443 13.6436 6.59784 14.1571 6.08626 14.6411C6.49927 14.0709 6.91563 13.2756 6.86189 12.4246C6.75813 10.7822 4.94851 9.56262 4.94851 9.56262C4.94851 9.56262 3.30674 11.0002 3.41046 12.6426C3.48516 13.8253 4.44547 14.7882 4.97608 15.2345C1.66309 18.4672 0.744571 19.0177 0.520648 19.1098C0.373527 19.076 0.212918 19.1218 0.106054 19.243C-0.0489525 19.4192 -0.0321446 19.6877 0.144027 19.8429C0.233876 19.922 0.322481 20 0.479147 20C0.949767 20 2.03543 19.2951 5.61675 15.7972L5.61712 15.7968C6.11752 16.2637 7.20479 17.118 8.40354 17.0423C10.0445 16.9387 11.2636 15.1285 11.2636 15.1285C11.2636 15.1285 9.8264 13.4862 8.18548 13.5899Z" fill="black"/>
</g>
</svg>
