<svg width="12" height="12" viewBox="0 0 12 12" fill="none" xmlns="http://www.w3.org/2000/svg">
<path d="M10.9914 4.32369C10.1945 4.11362 9.46318 3.69272 8.87695 3.10648C8.28925 2.51878 7.86775 1.78541 7.65806 0.985643C7.65593 0.97744 7.65593 0.97744 7.59377 0.691812C7.59178 0.682625 7.58979 0.673508 7.5878 0.664368C6.61298 1.0331 5.79526 1.54445 5.14746 2.19225C4.42279 2.91693 3.86464 3.86345 3.48845 5.00557C3.20929 5.85312 3.07675 6.67623 3.01408 7.29222L0.327165 7.47642C0.325852 7.47651 0.324587 7.47677 0.323274 7.47688C0.316102 7.47747 0.309001 7.47843 0.301923 7.47944C0.297189 7.4801 0.292431 7.48066 0.28779 7.48153C0.282025 7.48258 0.27633 7.48401 0.270634 7.48537C0.264822 7.48673 0.25901 7.48799 0.253314 7.48963C0.249096 7.49085 0.245018 7.4924 0.240846 7.49376C0.234026 7.49601 0.227182 7.49821 0.220596 7.50086C0.217385 7.50215 0.214268 7.50372 0.211104 7.5051C0.203909 7.50824 0.196714 7.51136 0.1898 7.51495C0.186425 7.51668 0.183214 7.51874 0.179886 7.5206C0.173488 7.52418 0.167066 7.5277 0.160949 7.53166C0.156309 7.53463 0.151926 7.53798 0.147449 7.5412C0.142926 7.54443 0.138309 7.5475 0.13395 7.55092C0.128254 7.5554 0.122864 7.5603 0.117426 7.56515C0.114544 7.56773 0.111544 7.57012 0.108755 7.57279C0.103153 7.57811 0.0979268 7.58385 0.0926535 7.58957C0.0902395 7.5922 0.0877083 7.59468 0.085388 7.59735C0.0807943 7.60267 0.0765522 7.60832 0.0722632 7.61394C0.0695211 7.61751 0.0666852 7.62098 0.0640837 7.62466C0.0607557 7.62939 0.0577323 7.63436 0.0546386 7.63928C0.0514277 7.64437 0.0481465 7.64938 0.0451935 7.65463C0.0429435 7.65862 0.0409513 7.66279 0.038842 7.66689C0.0354905 7.67343 0.0321859 7.67999 0.0292328 7.68674C0.0287406 7.68789 0.0280844 7.68894 0.0275922 7.69011C0.0264673 7.69281 0.0256938 7.69553 0.0246392 7.69822C0.0218502 7.70526 0.0191783 7.71231 0.0168581 7.71953C0.015405 7.724 0.0142097 7.72848 0.0129441 7.73298C0.0111629 7.73943 0.00942852 7.74587 0.00799886 7.75241C0.00678013 7.75797 0.00584265 7.76352 0.00490517 7.7691C0.00399112 7.77463 0.00307708 7.78014 0.00242084 7.78574C0.00162398 7.79246 0.00115524 7.79917 0.000733374 7.80587C0.000452129 7.81049 0.000147447 7.81508 5.36991e-05 7.81972C-0.00011036 7.82734 0.00012401 7.83491 0.000452129 7.84246C0.000569314 7.84534 0.000405255 7.84817 0.000616188 7.85108C0.000709936 7.85237 0.000967744 7.85361 0.00106149 7.85492C0.00160054 7.8616 0.00249115 7.86824 0.0034052 7.87482C0.00408487 7.87979 0.00469423 7.88478 0.00558484 7.88966C0.0065692 7.89503 0.00781136 7.9003 0.00903009 7.9056C0.0104129 7.91162 0.0117722 7.91764 0.0134597 7.92352C0.014655 7.92767 0.0160612 7.93175 0.0173971 7.93585C0.0196002 7.94258 0.0218267 7.94928 0.0244048 7.9558C0.025811 7.95938 0.0274282 7.96288 0.0289516 7.96641C0.0318343 7.97307 0.0347874 7.9797 0.0380686 7.9861C0.0399436 7.9898 0.042006 7.99339 0.0440216 7.99702C0.0473028 8.00293 0.0506074 8.00879 0.0542167 8.01448C0.0568182 8.01863 0.0596307 8.02264 0.0624197 8.02667C0.0657712 8.0315 0.0691461 8.0363 0.0727085 8.04097C0.0761772 8.04549 0.07981 8.04985 0.083513 8.05421C0.0868177 8.0581 0.0901457 8.06197 0.0936144 8.06569C0.0978096 8.07022 0.102145 8.0746 0.106599 8.07894C0.110067 8.08229 0.113559 8.08559 0.117169 8.0888C0.121786 8.09293 0.126497 8.09694 0.131348 8.10083C0.135403 8.10408 0.139528 8.1072 0.143723 8.11027C0.148293 8.11362 0.15291 8.11693 0.157691 8.12007C0.162941 8.12354 0.168332 8.12677 0.173769 8.12998C0.177777 8.13233 0.181761 8.13472 0.185886 8.13692C0.193011 8.14074 0.200323 8.14416 0.207706 8.14749C0.209956 8.1485 0.212042 8.14974 0.214315 8.1507L0.22001 8.15311C0.220362 8.15325 0.220714 8.15342 0.221065 8.15356L2.75749 9.22705L3.84957 11.7865C3.8501 11.7878 3.85078 11.7889 3.85132 11.7902C3.85301 11.794 3.85484 11.7977 3.85664 11.8015C3.85957 11.8075 3.86262 11.8135 3.86585 11.8193C3.86752 11.8223 3.86918 11.8253 3.87094 11.8282C3.87563 11.8361 3.88057 11.8437 3.88578 11.8511C3.88631 11.8519 3.88678 11.8527 3.88732 11.8534C3.8937 11.8623 3.90049 11.8709 3.90757 11.879C3.90804 11.8796 3.90853 11.88 3.90903 11.8806C3.91547 11.8879 3.9222 11.8949 3.92913 11.9016C3.93066 11.903 3.9322 11.9045 3.93375 11.9059C3.94024 11.9119 3.94692 11.9177 3.95377 11.9231C3.95524 11.9243 3.95665 11.9255 3.95813 11.9267C3.96616 11.9329 3.97441 11.9388 3.98292 11.9442C3.98534 11.9457 3.98787 11.9471 3.99033 11.9486C3.9964 11.9523 4.00254 11.9558 4.0088 11.9592C4.01245 11.9611 4.01616 11.9629 4.01991 11.9648C4.02576 11.9676 4.03172 11.9702 4.03769 11.9727C4.04114 11.9741 4.04449 11.9757 4.04801 11.977C4.05701 11.9804 4.06615 11.9834 4.0754 11.9861C4.07855 11.987 4.08173 11.9877 4.0849 11.9886C4.09254 11.9905 4.10025 11.9923 4.10798 11.9937C4.11068 11.9942 4.11333 11.9948 4.11604 11.9952C4.13472 11.9983 4.15371 12 4.17286 12C4.18753 12 4.20227 11.9987 4.21701 11.9968C4.22521 11.9958 4.23342 11.9948 4.24141 11.9932C4.2435 11.9927 4.24553 11.9921 4.24762 11.9916C4.25697 11.9896 4.26623 11.9873 4.27528 11.9846C4.27764 11.9838 4.27996 11.9829 4.28231 11.9821C4.29098 11.9793 4.29953 11.9762 4.30792 11.9727C4.30879 11.9723 4.30968 11.9721 4.31057 11.9717C4.3131 11.9707 4.31542 11.9693 4.31791 11.9682C4.32482 11.965 4.33169 11.9618 4.33835 11.9582C4.34273 11.9558 4.34692 11.9533 4.35117 11.9508C4.35634 11.9478 4.36148 11.9447 4.36647 11.9413C4.37139 11.9381 4.37617 11.9347 4.38091 11.9312C4.38491 11.9283 4.38885 11.9253 4.39274 11.9221C4.39773 11.9181 4.40261 11.914 4.40734 11.9097C4.41077 11.9067 4.41409 11.9035 4.4174 11.9003C4.42199 11.8958 4.42649 11.8913 4.43083 11.8866C4.43416 11.883 4.43734 11.8793 4.44051 11.8755C4.44433 11.871 4.4481 11.8665 4.45166 11.8618C4.45516 11.8573 4.45839 11.8526 4.46167 11.8478C4.46453 11.8437 4.46744 11.8396 4.47013 11.8353C4.47367 11.8297 4.47693 11.8238 4.48016 11.818C4.4822 11.8143 4.48431 11.8107 4.48621 11.8069C4.48947 11.8005 4.49237 11.7938 4.49526 11.7872C4.49678 11.7837 4.4984 11.7802 4.4998 11.7766C4.50236 11.77 4.50456 11.7633 4.50674 11.7566C4.50808 11.7525 4.50948 11.7485 4.51068 11.7443C4.51234 11.7385 4.51365 11.7325 4.51501 11.7265C4.51623 11.7212 4.51752 11.7159 4.51848 11.7105C4.51933 11.7057 4.51991 11.7009 4.52057 11.696C4.52151 11.6893 4.52242 11.6825 4.52296 11.6758C4.52305 11.6746 4.52326 11.6736 4.52336 11.6724L4.70881 8.96762C5.32369 8.90413 6.1444 8.77075 6.98884 8.49148C8.12615 8.11536 9.06904 7.55838 9.79142 6.83598C10.4356 6.19181 10.9448 5.3796 11.313 4.41202C11.1463 4.36627 11.0073 4.32807 10.9914 4.32369Z" fill="#D85C27"/>
<path fill-rule="evenodd" clip-rule="evenodd" d="M11.4827 0.000910207C11.7588 0.00510544 11.9784 0.224664 11.9826 0.500752C11.9885 0.892596 11.9723 1.93437 11.695 3.14145C11.6476 3.3481 11.5947 3.54919 11.5371 3.74498L11.1719 3.64464C10.4942 3.46624 9.87248 3.10834 9.37381 2.60969C8.87572 2.11158 8.51812 1.49069 8.33953 0.814199L8.28037 0.542423L8.25818 0.440542C8.44776 0.385114 8.64234 0.334349 8.84202 0.288459C10.0491 0.0111756 11.0906 -0.00511312 11.4827 0.000910207ZM10.3901 2.0944C10.399 2.08716 10.4077 2.07945 10.4159 2.07122C10.4812 2.00586 10.5187 1.9152 10.5187 1.82298C10.5187 1.73047 10.4813 1.63982 10.4159 1.57447C10.4077 1.56632 10.3991 1.55858 10.3901 1.55129C10.3812 1.54405 10.3719 1.53725 10.3625 1.53069C10.3529 1.52439 10.343 1.51853 10.3328 1.51314C10.3227 1.50777 10.3124 1.50285 10.3018 1.49861C10.2913 1.49418 10.2803 1.49019 10.2695 1.48689C10.2585 1.48363 10.2473 1.48082 10.236 1.47847C10.2248 1.47611 10.2133 1.47449 10.2018 1.47329C10.1791 1.47095 10.1557 1.47095 10.1327 1.47329C10.1215 1.47449 10.11 1.47611 10.0988 1.47847C10.0875 1.48079 10.0763 1.48361 10.0653 1.48689C10.0545 1.49019 10.0435 1.49418 10.0329 1.49861C10.0224 1.50285 10.0119 1.50777 10.0018 1.51314C9.99172 1.51851 9.9819 1.52436 9.97229 1.53069C9.96269 1.53723 9.95357 1.54403 9.94466 1.55129C9.93578 1.55854 9.92711 1.56627 9.91891 1.57447C9.91094 1.58265 9.90299 1.59109 9.89573 1.6C9.88848 1.60888 9.88169 1.61825 9.87536 1.62786C9.86901 1.63724 9.86291 1.64729 9.85755 1.65737C9.85237 1.66745 9.84745 1.67797 9.84302 1.68852C9.83856 1.69906 9.83479 1.70982 9.8313 1.72084C9.82802 1.73185 9.82523 1.7431 9.82286 1.75433C9.82075 1.76558 9.81888 1.7768 9.8177 1.78829C9.81653 1.79977 9.81604 1.81147 9.81604 1.82295C9.81604 1.91522 9.85354 2.00588 9.91888 2.07122C9.92706 2.0794 9.93573 2.08711 9.94464 2.0944C9.95355 2.10164 9.96266 2.10844 9.97227 2.115C9.98188 2.12133 9.9917 2.12719 10.0018 2.13258C10.0119 2.13799 10.0224 2.14292 10.0329 2.14734C10.0435 2.15154 10.0545 2.15555 10.0653 2.15883C10.0763 2.16209 10.0875 2.16513 10.0988 2.16727C10.11 2.16961 10.1215 2.17125 10.1327 2.17242C10.1442 2.17359 10.1559 2.1743 10.1674 2.1743C10.1789 2.1743 10.1906 2.17359 10.2018 2.17242C10.2133 2.17125 10.2248 2.16961 10.236 2.16727C10.2473 2.16516 10.2585 2.16211 10.2695 2.15883C10.2803 2.15557 10.2913 2.15156 10.3018 2.14734C10.3124 2.14289 10.3226 2.13797 10.3327 2.13258C10.343 2.12719 10.3529 2.12133 10.3625 2.115C10.3719 2.10846 10.3812 2.10167 10.3901 2.0944Z" fill="#D85C27"/>
</svg>
