<svg width="16" height="18" viewBox="0 0 16 18" fill="none" xmlns="http://www.w3.org/2000/svg">
<path d="M2.79486 13.7592V15.1581C2.79486 15.2841 2.89699 15.3862 3.02299 15.3862C3.14898 15.3862 3.25111 15.2841 3.25111 15.1581V13.7592H3.4443C4.8966 13.7575 6.0735 12.5806 6.07513 11.1283V10.9073H5.86659C4.52364 10.909 3.39694 11.9206 3.25111 13.2556V11.0494H3.4443C4.8966 11.0477 6.0735 9.87079 6.07513 8.41849V8.19747H5.86659C4.52364 8.19918 3.39694 9.21081 3.25111 10.5458V8.33967H3.4443C4.89659 8.33804 6.0735 7.16113 6.07513 5.70884V5.48782H5.86659C4.52364 5.48953 3.39694 6.50115 3.25111 7.83616V5.62994H3.4443C4.89661 5.62831 6.07352 4.45138 6.07513 2.99907V2.77809H5.86659C4.52364 2.7798 3.39694 3.79143 3.25111 5.12643V3.81234C4.21983 2.77643 4.19255 1.15895 3.18944 0.156305L3.03317 0L2.88569 0.147484C1.89618 1.13939 1.85627 2.73231 2.79486 3.77253V4.93283C2.56403 3.68555 1.47704 2.77993 0.208584 2.77809H0V2.99907C0.00163436 4.45138 1.17856 5.62831 2.63087 5.62994H2.79486V7.64267C2.5641 6.39533 1.47708 5.48963 0.208584 5.48778H0V5.7088C0.00165531 7.1611 1.17857 8.338 2.63087 8.33963H2.79486V10.3524C2.5641 9.1051 1.47708 8.1994 0.208584 8.19755H0V8.41857C0.00169716 9.87084 1.1786 11.0477 2.63087 11.0494H2.79486V13.0622C2.56411 11.8149 1.4771 10.9091 0.208584 10.9073H0V11.1283C0.00165526 12.5806 1.17857 13.7575 2.63087 13.7592H2.79486Z" fill="#D2B051"/>
<path d="M12.9911 7.0546C12.4752 7.31359 12.0597 7.73627 11.8096 8.25653L12.2017 7.06361C13.4382 6.3786 13.912 4.8387 13.2745 3.57708L13.1749 3.37982L12.9885 3.47385C11.7332 4.10791 11.1986 5.61726 11.7751 6.90009L11.4008 8.03855C11.5966 6.76707 10.8453 5.54017 9.62379 5.13659L9.42566 5.07146L9.35666 5.28141C8.90464 6.66159 9.65511 8.14722 11.0343 8.60237L11.1978 8.65613L10.5561 10.6083C10.7512 9.33761 9.99901 8.11213 8.77767 7.71077L8.57954 7.64564L8.5105 7.8556C8.05848 9.23578 8.80895 10.7214 10.1881 11.1766L10.3516 11.2303L9.70983 13.1824C9.90495 11.9116 9.15276 10.6861 7.9314 10.2848L7.73323 10.2197L7.66422 10.4296C7.2122 11.8098 7.96268 13.2954 9.34183 13.7505L9.50532 13.8043L8.86348 15.7565C9.05848 14.4859 8.3064 13.2606 7.0852 12.8592L6.88707 12.794L6.81806 13.004C6.36602 14.3842 7.11651 15.8698 8.49567 16.3249L8.65916 16.3787L8.22458 17.7006C8.18522 17.8203 8.25035 17.9492 8.37005 17.9885C8.48974 18.0279 8.61867 17.9628 8.65802 17.8431L9.0926 16.5212L9.26833 16.5789C10.6486 17.0327 12.1355 16.2816 12.5893 14.9013L12.6583 14.6914L12.4602 14.6262C11.2083 14.2145 9.8449 14.7929 9.2708 15.9791L9.93887 13.947L10.1146 14.0048C11.495 14.4584 12.9817 13.7072 13.4355 12.3269L13.5045 12.1169L13.3064 12.0518C12.0545 11.6401 10.6911 12.2184 10.117 13.4047L10.7851 11.3726L10.9608 11.4303C12.3411 11.8841 13.8279 11.1331 14.2818 9.75285L14.3508 9.5429L14.1526 9.47777C12.9007 9.0661 11.5374 9.64445 10.9634 10.8307L11.6314 8.79852L11.8071 8.85631C13.1874 9.3101 14.6742 8.55907 15.128 7.17882L15.1971 6.96887L14.999 6.90374C14.3364 6.68382 13.6133 6.73815 12.9911 7.0546Z" fill="#D2B051"/>
</svg>
