<svg width="52" height="50" viewBox="0 0 52 50" fill="none" xmlns="http://www.w3.org/2000/svg">
<path d="M8.46719 38.4423C8.2661 38.093 7.81098 37.9766 7.46171 38.1777L5.6201 39.2467V37.1193C5.6201 36.7171 5.29199 36.389 4.8898 36.389C4.48761 36.389 4.15951 36.7171 4.15951 37.1193V39.2467L2.31789 38.1777C1.96862 37.9766 1.51351 38.093 1.31242 38.4423C1.11132 38.7916 1.22774 39.2467 1.57701 39.4478L3.42921 40.5273L1.57701 41.6069C1.22774 41.808 1.11132 42.2631 1.31242 42.6124C1.51351 42.9616 1.96862 43.0781 2.31789 42.877L4.15951 41.808V43.9354C4.15951 44.3376 4.48761 44.6657 4.8898 44.6657C5.29199 44.6657 5.6201 44.3376 5.6201 43.9354V41.808L7.46171 42.877C7.81098 43.0781 8.2661 42.9616 8.46719 42.6124C8.66829 42.2631 8.55186 41.808 8.20259 41.6069L6.35039 40.5273L8.20259 39.4478C8.55186 39.2361 8.67887 38.7916 8.46719 38.4423Z" fill="url(#paint0_linear_0_519)"/>
<path d="M15.2304 42.6018C15.4314 42.9511 15.8866 43.0675 16.2358 42.8664L18.0774 41.7974V43.9248C18.0774 44.327 18.4056 44.6551 18.8077 44.6551C19.2099 44.6551 19.538 44.327 19.538 43.9248V41.7974L21.3797 42.8664C21.7289 43.0675 22.184 42.9511 22.3851 42.6018C22.5862 42.2525 22.4698 41.7974 22.1205 41.5963L20.2683 40.5167L22.1205 39.4372C22.4698 39.2361 22.5862 38.781 22.3851 38.4317C22.184 38.0824 21.7289 37.966 21.3797 38.1671L19.538 39.2361V37.1087C19.538 36.7065 19.2099 36.3784 18.8077 36.3784C18.4056 36.3784 18.0774 36.7065 18.0774 37.1087V39.2361L16.2358 38.1777C15.8866 37.9766 15.4314 38.093 15.2304 38.4423C15.0293 38.7916 15.1457 39.2467 15.495 39.4478L17.3472 40.5273L15.495 41.5963C15.1457 41.7974 15.0293 42.2525 15.2304 42.6018Z" fill="url(#paint1_linear_0_519)"/>
<path d="M13.9179 48.1478V49.4391C13.9179 49.746 14.172 50 14.4789 50H23.1472C23.4541 50 23.7081 49.746 23.7081 49.4391V48.1478C23.7081 47.8409 23.4541 47.5869 23.1472 47.5869H14.4789C14.1614 47.5869 13.9179 47.8409 13.9179 48.1478Z" fill="url(#paint2_linear_0_519)"/>
<path fill-rule="evenodd" clip-rule="evenodd" d="M34.9801 12.0564H35.0436C36.3454 12.0564 37.4038 13.1148 37.3932 14.4166V27.4244C37.3932 28.7262 36.3348 29.7846 35.033 29.7846H16.8709C15.569 29.7846 14.5107 28.7262 14.5107 27.4244V14.406C14.5107 13.1254 15.5373 12.0987 16.8074 12.0564H23.6552V12.0458H31.064V8.93413C31.064 6.05528 28.6297 3.73739 25.7085 3.91732C23.0202 4.08666 20.9986 6.44689 20.9986 9.13522V9.2199C20.9986 9.63267 20.6599 9.97136 20.2472 9.97136H17.8446C17.4318 9.97136 17.0931 9.63267 17.0931 9.2199V8.94471C17.0931 4.06549 21.0304 0.0859144 25.8884 0.00124245C30.8841 -0.0834294 34.9801 4.17133 34.9801 9.17756V12.0564ZM27.1268 21.9842C27.1268 21.7725 27.1797 21.6349 27.3596 21.5079C27.9629 21.074 28.2698 20.4601 28.2381 19.7086C28.2275 18.6396 27.476 17.7612 26.3965 17.5495C25.4333 17.3484 24.4067 17.8988 23.9833 18.8302C23.5494 19.7933 23.8351 20.8835 24.703 21.5185C24.8724 21.6455 24.9147 21.7831 24.9147 21.9736V24.8419V24.8524C24.9147 25.6462 25.7508 26.2389 26.587 25.8156C26.9468 25.6357 27.1479 25.2546 27.1268 24.8524C27.1373 23.8893 27.1373 22.9367 27.1268 21.9842Z" fill="url(#paint3_linear_0_519)"/>
<path d="M27.8253 48.1478V49.4391C27.8253 49.746 28.0793 50 28.3863 50H37.0546C37.3615 50 37.6155 49.746 37.6155 49.4391V48.1478C37.6155 47.8409 37.3615 47.5869 37.0546 47.5869H28.3863C28.0793 47.5869 27.8253 47.8409 27.8253 48.1478Z" fill="url(#paint4_linear_0_519)"/>
<path d="M29.1377 42.6018C29.3388 42.9511 29.7939 43.0675 30.1432 42.8664L31.9848 41.7974V43.9248C31.9848 44.327 32.3129 44.6551 32.7151 44.6551C33.1173 44.6551 33.4454 44.327 33.4454 43.9248V41.7974L35.287 42.8664C35.6363 43.0675 36.0914 42.9511 36.2925 42.6018C36.4936 42.2525 36.3772 41.7974 36.0279 41.5963L34.1757 40.5167L36.0279 39.4372C36.3772 39.2361 36.4936 38.781 36.2925 38.4317C36.0914 38.0824 35.6363 37.966 35.287 38.1671L33.4454 39.2361V37.1087C33.4454 36.7065 33.1173 36.3784 32.7151 36.3784C32.3129 36.3784 31.9848 36.7065 31.9848 37.1087V39.2361L30.1432 38.1671C29.7939 37.966 29.3388 38.0824 29.1377 38.4317C28.9366 38.781 29.053 39.2361 29.4023 39.4372L31.2545 40.5167L29.4023 41.5963C29.053 41.7974 28.9366 42.2525 29.1377 42.6018Z" fill="url(#paint5_linear_0_519)"/>
<path d="M50.9619 47.5869H42.2936C41.9867 47.5869 41.7327 47.8409 41.7327 48.1478V49.4391C41.7327 49.746 41.9867 50 42.2936 50H50.9619C51.2688 50 51.5229 49.746 51.5229 49.4391V48.1478C51.5229 47.8409 51.2688 47.5869 50.9619 47.5869Z" fill="url(#paint6_linear_0_519)"/>
<path d="M0.560951 50H9.22924C9.53617 50 9.79019 49.746 9.79019 49.4391V48.1478C9.79019 47.8409 9.53617 47.5869 9.22924 47.5869H0.560951C0.254016 47.5869 0 47.8409 0 48.1478V49.4391C0 49.746 0.254016 50 0.560951 50Z" fill="url(#paint7_linear_0_519)"/>
<path d="M43.0557 42.6018C43.2568 42.9511 43.7119 43.0675 44.0612 42.8664L45.9028 41.7974V43.9248C45.9028 44.327 46.2309 44.6551 46.6331 44.6551C47.0353 44.6551 47.3634 44.327 47.3634 43.9248V41.7974L49.205 42.8664C49.5542 43.0675 50.0094 42.9511 50.2105 42.6018C50.4115 42.2525 50.2951 41.7974 49.9459 41.5963L48.0937 40.5167L49.9459 39.4372C50.2951 39.2361 50.4115 38.781 50.2105 38.4317C50.0094 38.0824 49.5542 37.966 49.205 38.1671L47.3634 39.2361V37.1087C47.3634 36.7065 47.0353 36.3784 46.6331 36.3784C46.2309 36.3784 45.9028 36.7065 45.9028 37.1087V39.2361L44.0612 38.1671C43.7119 37.966 43.2568 38.0824 43.0557 38.4317C42.8546 38.781 42.971 39.2361 43.3203 39.4372L45.1725 40.5167L43.3203 41.5963C42.971 41.7974 42.844 42.2525 43.0557 42.6018Z" fill="url(#paint8_linear_0_519)"/>
<defs>
<linearGradient id="paint0_linear_0_519" x1="1.21402" y1="36.389" x2="1.21402" y2="44.6657" gradientUnits="userSpaceOnUse">
<stop stop-color="#EE954F"/>
<stop offset="1" stop-color="#D85C27"/>
</linearGradient>
<linearGradient id="paint1_linear_0_519" x1="15.132" y1="36.3784" x2="15.132" y2="44.6551" gradientUnits="userSpaceOnUse">
<stop stop-color="#EE954F"/>
<stop offset="1" stop-color="#D85C27"/>
</linearGradient>
<linearGradient id="paint2_linear_0_519" x1="13.9179" y1="47.5869" x2="13.9179" y2="50" gradientUnits="userSpaceOnUse">
<stop stop-color="#EE954F"/>
<stop offset="1" stop-color="#D85C27"/>
</linearGradient>
<linearGradient id="paint3_linear_0_519" x1="14.5107" y1="0" x2="14.5107" y2="29.7846" gradientUnits="userSpaceOnUse">
<stop stop-color="#EE954F"/>
<stop offset="1" stop-color="#D85C27"/>
</linearGradient>
<linearGradient id="paint4_linear_0_519" x1="27.8253" y1="47.5869" x2="27.8253" y2="50" gradientUnits="userSpaceOnUse">
<stop stop-color="#EE954F"/>
<stop offset="1" stop-color="#D85C27"/>
</linearGradient>
<linearGradient id="paint5_linear_0_519" x1="29.0393" y1="36.3784" x2="29.0393" y2="44.6551" gradientUnits="userSpaceOnUse">
<stop stop-color="#EE954F"/>
<stop offset="1" stop-color="#D85C27"/>
</linearGradient>
<linearGradient id="paint6_linear_0_519" x1="41.7327" y1="47.5869" x2="41.7327" y2="50" gradientUnits="userSpaceOnUse">
<stop stop-color="#EE954F"/>
<stop offset="1" stop-color="#D85C27"/>
</linearGradient>
<linearGradient id="paint7_linear_0_519" x1="0" y1="47.5869" x2="0" y2="50" gradientUnits="userSpaceOnUse">
<stop stop-color="#EE954F"/>
<stop offset="1" stop-color="#D85C27"/>
</linearGradient>
<linearGradient id="paint8_linear_0_519" x1="42.9526" y1="36.3784" x2="42.9526" y2="44.6551" gradientUnits="userSpaceOnUse">
<stop stop-color="#EE954F"/>
<stop offset="1" stop-color="#D85C27"/>
</linearGradient>
</defs>
</svg>
