<svg width="17" height="16" viewBox="0 0 17 16" fill="none" xmlns="http://www.w3.org/2000/svg">
<path fill-rule="evenodd" clip-rule="evenodd" d="M8.19727 0C3.94125 0.0019608 0.425925 3.59585 0.197266 8.18333C0.197266 9.74541 1.72315 10.9194 3.15068 12.0176C3.98987 12.6633 4.79508 13.2828 5.23633 13.9396C5.25886 13.9731 5.28086 14.0043 5.30289 14.0356L5.33789 14.0854C5.95593 13.4314 7.06786 13.065 8.19727 13.0672C9.33187 13.0655 10.438 13.4342 11.0546 14.088C11.067 14.0702 11.0793 14.0527 11.0917 14.0352L11.0917 14.0352C11.1137 14.0041 11.1358 13.973 11.1582 13.9396C11.5995 13.2828 12.4046 12.6633 13.2438 12.0176L13.2438 12.0176C14.6714 10.9194 16.1973 9.74541 16.1973 8.18333C15.9686 3.59585 12.4533 0.0019608 8.19727 0ZM8.19727 2.93333C8.33063 2.93333 8.46393 3.02218 8.46393 3.2V10.1333C8.46393 10.489 7.9306 10.489 7.9306 10.1333V3.2C7.9306 3.02218 8.0639 2.93333 8.19727 2.93333ZM2.5306 6.75625C2.47004 6.69115 2.40062 6.66515 2.33372 6.66667C2.13303 6.67121 1.95882 6.92449 2.14049 7.11979L5.59102 10.8297C5.83325 11.0901 6.22387 10.7265 5.98164 10.4661L2.5306 6.75625ZM14.0608 6.66667C14.2615 6.67121 14.4357 6.92449 14.254 7.11979L10.8035 10.8297C10.5613 11.0901 10.1707 10.7265 10.4129 10.4661L13.8639 6.75625C13.9245 6.69115 13.9939 6.66515 14.0608 6.66667ZM3.1306 13.7792C3.13079 13.4624 3.20999 13.1493 3.36289 12.8609C3.9802 13.3491 4.49578 13.7931 4.79362 14.2365C5.33148 15.0371 5.8283 15.578 6.32435 15.9359C6.12643 15.9776 5.92346 15.9991 5.71966 16C4.28973 16 3.13056 15.0057 3.1306 13.7792ZM13.0316 12.8609C12.4143 13.3491 11.8988 13.7931 11.6009 14.2365C11.0631 15.0371 10.5662 15.578 10.0702 15.9359C10.2681 15.9776 10.4711 15.9991 10.6749 16C12.1048 16 13.264 15.0057 13.2639 13.7792C13.2637 13.4624 13.1845 13.1493 13.0316 12.8609ZM5.66289 14.5286C6.09174 14.0088 7.04646 13.6008 8.19727 13.6005C9.34448 13.6013 10.2859 14.0012 10.7306 14.5302C9.75306 15.7721 8.97451 16 8.19727 16C7.41973 16 6.64095 15.7718 5.66289 14.5286Z" fill="#D85C27"/>
</svg>
