<svg width="51" height="51" viewBox="0 0 51 51" fill="none" xmlns="http://www.w3.org/2000/svg">
<path d="M2.49749 12.4037H14.1525C14.8148 12.4037 15.4501 12.6668 15.9184 13.1352C16.3868 13.6035 16.6499 14.2388 16.6499 14.9011V24.0583C16.6499 25.4377 15.5317 26.5558 14.1524 26.5558H2.49743C1.11814 26.5558 0 25.4377 0 24.0584V14.9012C0 13.5219 1.11816 12.4037 2.49749 12.4037V12.4037Z" fill="white"/>
<circle cx="26.6397" cy="4.91116" r="4.16216" fill="white"/>
<path d="M9.15918 28.9289C9.15942 30.2214 9.66769 31.462 10.5744 32.3832H24.1071V28.9244C24.1071 28.4667 23.736 28.0956 23.2783 28.0956H9.98802C9.52942 28.0977 9.15886 28.4703 9.15918 28.9289Z" fill="white"/>
<path fill-rule="evenodd" clip-rule="evenodd" d="M43.6314 36.8473C46.8306 36.6607 49.7221 38.7433 50.5588 41.8368C50.6708 42.2415 50.7431 42.6561 50.7747 43.0749C50.818 43.5222 50.4935 43.9211 50.0468 43.9697C50.5865 45.8766 50.0233 47.9255 48.5847 49.2886C47.1461 50.6516 45.0699 51.1036 43.1949 50.4618C41.3198 49.82 39.956 48.1906 39.6543 46.2319C39.5437 46.3656 39.4384 46.5015 39.3417 46.6406C39.1733 46.8831 38.8885 47.0176 38.5942 46.9937C38.2999 46.9699 38.0405 46.7912 37.9133 46.5248C37.69 46.0751 37.5258 45.5986 37.4247 45.1068C37.2386 45.3168 36.9763 45.4435 36.6962 45.459L22.4286 45.4592C22.2326 48.2527 19.9093 50.4188 17.1089 50.4188C14.3085 50.4189 11.9852 48.2529 11.7891 45.4593C11.3991 45.4908 11.0066 45.4482 10.6324 45.3337C9.59855 44.9999 8.78971 44.1872 8.46091 43.1517C7.59168 40.4401 9.73999 36.2714 11.0822 34.0481H23.8062C23.1763 35.7556 23.6654 37.6747 25.0357 38.8724L25.6807 27.9627C25.7047 27.5228 25.3798 27.1413 24.9417 27.0948L20.8492 26.642C20.1531 26.5664 19.5214 26.2005 19.1095 25.6344C18.6976 25.0682 18.5439 24.3545 18.6862 23.669L21.0748 12.2561C21.2747 11.3545 21.875 10.5934 22.7051 10.1887C23.5352 9.78398 24.5046 9.77997 25.338 10.1778C26.5195 10.7674 27.1948 12.0435 27.0177 13.352C27.0347 13.3711 27.0522 13.3906 27.0701 13.4101C27.9355 14.3667 29.3836 15.9632 34.1971 17.3494H39.8905C41.2629 17.3486 42.3769 18.459 42.3806 19.8314V21.4845C42.3769 22.857 41.2629 23.9675 39.8905 23.9669H38.2962C38.4982 27.1391 39.8348 30.1548 41.6225 31.3405C42.9739 32.235 43.7996 33.7363 43.8314 35.3566C43.8291 35.86 43.7618 36.3611 43.6314 36.8473ZM13.4589 45.4593C13.647 47.3339 15.2246 48.7612 17.1086 48.7612C18.9928 48.7612 20.5705 47.3339 20.7588 45.4592L13.4589 45.4593ZM33.2471 39.6682H30.0132L31.4431 26.1497C31.5608 25.0236 30.9013 23.9605 29.84 23.5657L25.7608 22.0435C25.373 21.8995 25.1517 21.4908 25.2429 21.0874L25.8636 18.4111C27.9857 20.1032 30.5478 21.1524 33.2471 21.4348V39.6682ZM42.3393 47.989C43.1455 48.7789 44.27 49.1543 45.3891 49.0071C46.606 48.8525 47.6648 48.099 48.2095 46.9999C48.7543 45.9008 48.7127 44.6019 48.0988 43.5399L47.9021 43.3881C45.6903 43.0165 43.4189 43.4633 41.5127 44.6449L41.2591 44.9606C41.1348 46.0824 41.5331 47.1991 42.3393 47.989Z" fill="white"/>
</svg>
