<svg width="25" height="24" viewBox="0 0 25 24" fill="none" xmlns="http://www.w3.org/2000/svg">
<path d="M1.19879 5.59424H6.79319C7.11112 5.59424 7.41603 5.72054 7.64085 5.94535C7.86566 6.17016 7.99196 6.47507 7.99196 6.79301V11.1885C7.99196 11.8505 7.45524 12.3873 6.79316 12.3873H1.19877C0.536706 12.3873 0 11.8506 0 11.1885V6.79304C0 6.13096 0.536719 5.59424 1.19879 5.59424V5.59424Z" fill="white"/>
<circle cx="12.7869" cy="1.99784" r="1.99784" fill="white"/>
<path d="M4.39648 13.5263C4.3966 14.1467 4.64057 14.7422 5.07578 15.1844H11.5715V13.5242C11.5715 13.3045 11.3934 13.1264 11.1737 13.1263H4.79433C4.5742 13.1274 4.39633 13.3062 4.39648 13.5263Z" fill="url(#paint0_linear_1_52)"/>
<path fill-rule="evenodd" clip-rule="evenodd" d="M20.9432 17.3271C22.4788 17.2376 23.8668 18.2372 24.2684 19.7221C24.3222 19.9163 24.3569 20.1154 24.372 20.3164C24.3928 20.5311 24.237 20.7225 24.0226 20.7459C24.2817 21.6612 24.0114 22.6447 23.3208 23.2989C22.6303 23.9532 21.6337 24.1701 20.7337 23.8621C19.8337 23.554 19.179 22.7719 19.0342 21.8317C18.9811 21.8959 18.9306 21.9611 18.8842 22.0279C18.8033 22.1443 18.6666 22.2089 18.5254 22.1974C18.3841 22.186 18.2596 22.1002 18.1986 21.9723C18.0914 21.7565 18.0125 21.5277 17.964 21.2917C17.8747 21.3925 17.7488 21.4533 17.6144 21.4607L10.7659 21.4608C10.6718 22.8017 9.55663 23.8414 8.21244 23.8415C6.86825 23.8415 5.75303 22.8018 5.65893 21.4609C5.47171 21.476 5.28332 21.4556 5.10371 21.4006C4.60746 21.2404 4.21922 20.8503 4.06139 20.3533C3.64416 19.0517 4.67535 17.0507 5.3196 15.9835H11.4271C11.1248 16.8031 11.3596 17.7243 12.0173 18.2992L12.3269 13.0625C12.3384 12.8514 12.1825 12.6682 11.9722 12.6459L10.0078 12.4286C9.67366 12.3923 9.37041 12.2167 9.1727 11.9449C8.975 11.6732 8.90122 11.3306 8.96955 11.0015L10.116 5.52338C10.212 5.0906 10.5001 4.72523 10.8986 4.53098C11.2971 4.33673 11.7624 4.33481 12.1624 4.52577C12.7295 4.80877 13.0537 5.42132 12.9686 6.0494C12.9768 6.05857 12.9852 6.06793 12.9938 6.0773C13.4092 6.53642 14.1043 7.30275 16.4148 7.96813H19.1476C19.8063 7.96777 20.341 8.50073 20.3429 9.15948V9.953C20.3411 10.6118 19.8064 11.1448 19.1476 11.1446H18.3823C18.4793 12.6672 19.1208 14.1147 19.979 14.6839C20.6276 15.1132 21.024 15.8339 21.0392 16.6116C21.0381 16.8532 21.0058 17.0937 20.9432 17.3271ZM6.46042 21.4609C6.55071 22.3607 7.30797 23.0458 8.21229 23.0458C9.11668 23.0458 9.87401 22.3607 9.96437 21.4608L6.46042 21.4609ZM15.9588 18.6811H14.4065L15.0929 12.1923C15.1493 11.6517 14.8328 11.1415 14.3234 10.952L12.3653 10.2213C12.1792 10.1522 12.073 9.95603 12.1168 9.76238L12.4147 8.47777C13.4333 9.28995 14.6631 9.79357 15.9588 9.92912V18.6811ZM20.323 22.6751C20.71 23.0543 21.2498 23.2345 21.7869 23.1638C22.371 23.0896 22.8792 22.728 23.1407 22.2004C23.4022 21.6728 23.3822 21.0494 23.0876 20.5396L22.9932 20.4667C21.9315 20.2883 20.8412 20.5028 19.9263 21.07L19.8045 21.2215C19.7449 21.76 19.936 22.296 20.323 22.6751Z" fill="white"/>
<defs>
<linearGradient id="paint0_linear_1_52" x1="4.39648" y1="13.1263" x2="4.39648" y2="15.1844" gradientUnits="userSpaceOnUse">
<stop stop-color="#E4CF5E"/>
<stop offset="1" stop-color="#D85C27"/>
</linearGradient>
</defs>
</svg>
