<svg width="14" height="14" viewBox="0 0 14 14" fill="none" xmlns="http://www.w3.org/2000/svg">
<path fill-rule="evenodd" clip-rule="evenodd" d="M2.87667 5.51017C1.4338 6.02306 0.33434 7.29213 0.0755596 8.74356C-0.174361 10.1446 0.241125 12.9118 0.662956 13.3316C0.974154 13.6407 2.73763 14 4.19478 14C4.58035 14 4.94427 13.9749 5.25434 13.9171C6.732 13.6419 7.97053 12.5691 8.48721 11.1176C8.92097 9.85483 9.85544 8.92083 11.0686 8.50482C12.5514 7.97769 13.6509 6.70919 13.9202 5.25546C14.1784 3.85899 13.764 1.08749 13.3365 0.662353C12.9082 0.235819 10.1367 -0.178465 8.74228 0.0799603C7.2877 0.348667 6.01838 1.44764 5.5088 2.87968C5.07478 4.14249 4.14031 5.0765 2.92712 5.49251C2.92597 5.49308 2.87782 5.5099 2.87667 5.51017ZM11.9584 4.66667C11.8344 4.66667 11.7197 4.58721 11.6804 4.46302C11.6316 4.30948 11.7168 4.14542 11.8704 4.09699C12.072 4.0332 12.2233 3.88992 12.256 3.73242C12.2894 3.57435 12.444 3.4738 12.601 3.50599C12.7588 3.53874 12.8602 3.69343 12.8274 3.85093C12.7511 4.2175 12.452 4.52481 12.0464 4.653C12.017 4.66241 11.9874 4.66667 11.9584 4.66667ZM8.76369 6.79633C8.80301 6.92053 8.91777 6.99999 9.04169 6.99999C9.07076 6.99999 9.10037 6.99572 9.12971 6.98632C9.84037 6.76131 10.3633 6.23037 10.494 5.6009C10.5268 5.4434 10.4254 5.28871 10.2676 5.25596C10.111 5.2232 9.95573 5.32459 9.92268 5.48239C9.83608 5.89911 9.45584 6.27109 8.95367 6.43031C8.80014 6.47904 8.71499 6.64283 8.76369 6.79633ZM8.45864 4.66667C8.43898 4.66667 8.41905 4.66468 8.39911 4.66068C8.24131 4.62793 8.13989 4.47327 8.17271 4.31577C8.30344 3.68629 8.82639 3.15536 9.53705 2.93035C9.6914 2.88107 9.85434 2.9671 9.90304 3.12033C9.95174 3.27384 9.86659 3.43763 9.71306 3.48633C9.21089 3.64555 8.83065 4.01753 8.74405 4.43425C8.71526 4.57212 8.59394 4.66667 8.45864 4.66667ZM6.99403 7.93424C7.02679 7.77674 6.9254 7.62206 6.7676 7.5893C6.61207 7.55627 6.45572 7.65766 6.42266 7.81573C6.33606 8.23245 5.95582 8.60443 5.45365 8.76366C5.30012 8.81236 5.21497 8.97615 5.26367 9.12965C5.30299 9.25385 5.41775 9.33331 5.54167 9.33331C5.57074 9.33331 5.60035 9.32904 5.62969 9.31964C6.34035 9.09463 6.8633 8.56372 6.99403 7.93424ZM4.95838 12.25C4.83445 12.25 4.71969 12.1705 4.68037 12.0463C4.63165 11.8928 4.71682 11.729 4.87036 11.6803C5.37252 11.5211 5.75276 11.1491 5.83936 10.7324C5.87242 10.5746 6.02822 10.4735 6.1843 10.5059C6.3421 10.5387 6.44349 10.6934 6.41074 10.8509C6.28001 11.4804 5.75706 12.0113 5.0464 12.2363C5.01706 12.2457 4.98744 12.25 4.95838 12.25ZM2.56578 11.0773C2.58571 11.0813 2.60564 11.0833 2.6253 11.0833C2.7606 11.0833 2.88192 10.9888 2.91072 10.8509C2.94347 10.6934 3.09471 10.5501 3.29637 10.4863C3.44991 10.4376 3.53506 10.2738 3.48636 10.1203C3.43766 9.96653 3.27472 9.88108 3.12036 9.93036C2.71477 10.0588 2.41541 10.3662 2.33934 10.7324C2.30659 10.8899 2.40798 11.0446 2.56578 11.0773ZM1.08807 11.0591C1.04347 11.4774 1.00664 11.8021 0.868471 12.2641C0.6728 11.3933 0.472863 9.86025 0.653742 8.84651C0.876183 7.59811 1.82638 6.50493 3.0745 6.06145L3.07478 6.06117L3.11921 6.04578C4.50261 5.57126 5.56901 4.50543 6.04384 3.122C6.50012 1.83884 7.59444 0.88865 8.84741 0.657076C9.12996 0.604959 9.45439 0.583029 9.79419 0.583029C10.659 0.583029 11.6189 0.72467 12.2517 0.868443C11.9359 0.9292 11.5583 0.986157 11.2201 1.03707C10.8068 1.09917 10.3585 1.16665 9.90755 1.24983C8.45347 1.51843 7.18514 2.61702 6.67586 4.04829C6.24208 5.31067 5.3081 6.24435 4.09587 6.66019C2.60335 7.19055 1.50418 8.45916 1.24557 9.9101C1.1587 10.3974 1.1211 10.7489 1.08807 11.0591Z" fill="#1E2D40"/>
</svg>
