<svg width="12" height="12" viewBox="0 0 12 12" fill="none" xmlns="http://www.w3.org/2000/svg">
<path fill-rule="evenodd" clip-rule="evenodd" d="M9.53428 4.723C10.771 5.16262 11.7134 6.2504 11.9352 7.49448C12.1495 8.69534 11.7933 11.0673 11.4318 11.427C11.165 11.692 9.65346 12 8.40448 12C8.07399 12 7.76206 11.9785 7.49628 11.9289C6.22972 11.693 5.16812 10.7735 4.72524 9.52941C4.35346 8.447 3.55248 7.64643 2.51261 7.28985C1.24167 6.83802 0.299248 5.75073 0.0684124 4.50468C-0.152884 3.30771 0.202287 0.932137 0.568685 0.567731C0.935832 0.202131 3.31138 -0.15297 4.50662 0.0685374C5.7534 0.298857 6.84139 1.24083 7.27817 2.4683C7.65019 3.55071 8.45116 4.35128 9.49104 4.70786C9.49202 4.70835 9.53329 4.72277 9.53428 4.723ZM1.75004 4.00001C1.85626 4.00001 1.95462 3.9319 1.98833 3.82544C2.03009 3.69384 1.95708 3.55322 1.82546 3.51171C1.65261 3.45703 1.52298 3.33422 1.4949 3.19922C1.46633 3.06373 1.33376 2.97755 1.19923 3.00513C1.06398 3.03321 0.97707 3.1658 1.00515 3.3008C1.07059 3.615 1.32694 3.87841 1.67459 3.98829C1.69974 3.99635 1.72512 4.00001 1.75004 4.00001ZM4.48832 5.82543C4.45461 5.93188 4.35625 5.99999 4.25003 5.99999C4.22511 5.99999 4.19973 5.99633 4.17458 5.98827C3.56544 5.7954 3.1172 5.34032 3.00515 4.80077C2.97707 4.66577 3.06398 4.53318 3.19923 4.5051C3.33351 4.47702 3.46656 4.56393 3.4949 4.69919C3.56912 5.05637 3.89504 5.37522 4.32547 5.51169C4.45707 5.55346 4.53006 5.69385 4.48832 5.82543ZM4.74969 4C4.76654 4 4.78363 3.99829 4.80071 3.99487C4.93597 3.96679 5.0229 3.83423 4.99478 3.69923C4.88272 3.15968 4.43448 2.70459 3.82534 2.51173C3.69304 2.46949 3.55337 2.54323 3.51163 2.67457C3.46989 2.80615 3.54287 2.94654 3.67447 2.98828C4.1049 3.12476 4.43082 3.4436 4.50505 3.80079C4.52973 3.91896 4.63372 4 4.74969 4ZM6.00515 6.80078C5.97707 6.66578 6.06398 6.53319 6.19923 6.50511C6.33255 6.4768 6.46656 6.56371 6.4949 6.6992C6.56912 7.05639 6.89504 7.37523 7.32547 7.51171C7.45707 7.55345 7.53006 7.69384 7.48832 7.82542C7.45461 7.93187 7.35625 7.99998 7.25003 7.99998C7.22511 7.99998 7.19973 7.99632 7.17458 7.98826C6.56544 7.79539 6.1172 7.34033 6.00515 6.80078ZM7.75003 10.5C7.85625 10.5 7.95461 10.4319 7.98832 10.3254C8.03008 10.1938 7.95707 10.0534 7.82547 10.0117C7.39504 9.87521 7.06912 9.55636 6.9949 9.19918C6.96656 9.06392 6.83301 8.97725 6.69923 9.00509C6.56398 9.03317 6.47707 9.16575 6.50515 9.30075C6.6172 9.84031 7.06544 10.2954 7.67458 10.4883C7.69973 10.4963 7.72511 10.5 7.75003 10.5ZM9.8007 9.49487C9.78361 9.49829 9.76653 9.5 9.74968 9.5C9.63371 9.5 9.52972 9.41895 9.50504 9.30078C9.47696 9.16578 9.34733 9.04297 9.17447 8.98829C9.04287 8.94655 8.96989 8.80616 9.01163 8.67458C9.05337 8.54274 9.19304 8.4695 9.32534 8.51173C9.67299 8.62184 9.92958 8.88528 9.99479 9.19923C10.0229 9.3342 9.93596 9.46679 9.8007 9.49487ZM11.0673 9.47923C11.1056 9.83773 11.1371 10.1161 11.2556 10.5121C11.4233 9.76566 11.5947 8.45164 11.4396 7.58272C11.249 6.51266 10.4345 5.57566 9.36468 5.19553L9.36444 5.19529L9.32636 5.1821C8.14059 4.77536 7.22653 3.86179 6.81954 2.676C6.42844 1.57615 5.49045 0.761701 4.41647 0.563209C4.17429 0.518537 3.89621 0.499741 3.60495 0.499741C2.86365 0.499741 2.0409 0.621147 1.49854 0.744381C1.76924 0.796459 2.09284 0.845279 2.38278 0.888919C2.73704 0.942146 3.1213 0.999989 3.50778 1.07129C4.75414 1.30151 5.84128 2.24316 6.2778 3.46997C6.64962 4.552 7.45017 5.3523 8.48922 5.70874C9.76853 6.16333 10.7107 7.25071 10.9323 8.49437C11.0068 8.9121 11.039 9.21336 11.0673 9.47923Z" fill="#D85C27"/>
</svg>
