<svg width="10" height="12" viewBox="0 0 10 12" fill="none" xmlns="http://www.w3.org/2000/svg">
<path d="M5.47737 1.31297C5.38475 0.573719 4.75242 0 3.98856 0C3.95362 0 3.92103 0.00961278 3.89313 0.0262593C3.72955 0.122317 3.79797 0.375133 3.98856 0.375133C4.60663 0.375133 5.11396 0.877319 5.11396 1.50053V2.12016C5.11396 2.19563 5.1841 2.25073 5.2578 2.23441C5.35228 2.21347 5.43383 2.1764 5.48909 2.14646C5.53598 2.12114 5.56388 2.10098 5.56458 2.10028C5.64782 2.03861 5.76528 2.05573 5.82718 2.13873C5.88907 2.22196 5.87172 2.33942 5.78873 2.40132C5.78005 2.40765 5.63727 2.51245 5.42813 2.57669C5.21421 2.64211 5.01401 2.6422 4.79978 2.57669C4.59064 2.51245 4.44786 2.40765 4.43918 2.40132C4.35619 2.33942 4.33884 2.22196 4.40073 2.13873C4.46263 2.05573 4.58009 2.03838 4.66333 2.10028C4.66333 2.10028 4.66335 2.10028 4.66335 2.1003C4.69627 2.12074 4.73882 2.09917 4.73885 2.06042C4.73908 1.65706 4.74074 1.51167 4.73631 1.42661C4.73298 1.36262 4.67875 1.31332 4.61472 1.31559C2.54122 1.38933 0.799927 3.06861 0.799927 5.25303C0.799927 5.34049 0.860182 5.41622 0.945291 5.43591C1.87857 5.6514 2.87748 5.41565 3.70627 4.89924C4.0588 5.36459 4.5186 5.73515 5.03213 5.98337C5.0819 6.00736 5.14181 6.00937 5.19578 5.98337C5.6998 5.73974 6.16287 5.37296 6.52164 4.89924C7.3497 5.41532 8.3476 5.65156 9.28262 5.43568C9.36773 5.41622 9.42798 5.34025 9.42798 5.25303C9.42798 3.03679 7.62629 1.31686 5.47737 1.31297Z" fill="#D85C27"/>
<path d="M6.31034 10.6898C6.37432 10.7206 6.39566 10.8005 6.35688 10.86C6.08779 11.273 5.70251 11.6491 5.21716 11.9691C5.15479 12.0103 5.07315 12.0103 5.01083 11.9691C4.52546 11.6493 4.14015 11.2732 3.87106 10.86C3.83231 10.8004 3.85364 10.7206 3.9176 10.6897C4.39308 10.4604 4.84636 10.0144 5.02917 9.82198C5.07526 9.77345 5.1527 9.77345 5.1988 9.82198C5.38163 10.0144 5.83488 10.4605 6.31034 10.6898Z" fill="#D85C27"/>
<path d="M4.6216 9.5305C4.15491 9.19553 3.76819 8.79445 3.47876 8.31207C3.45085 8.26558 3.39433 8.24474 3.34277 8.26159C2.96972 8.38351 2.58083 8.43512 2.19805 8.43512C2.1237 8.43512 2.04903 8.4327 1.98955 8.42996C1.92296 8.42689 1.86672 8.47997 1.86707 8.5466C1.87065 9.22121 2.13238 9.93199 2.63485 10.6081C2.67072 10.6563 2.72699 10.6838 2.78537 10.6838C2.86996 10.6838 3.30814 10.5536 3.62942 10.4074C4.00565 10.2363 4.35495 10.0042 4.63937 9.70564C4.68816 9.65446 4.67906 9.57177 4.6216 9.5305Z" fill="#D85C27"/>
<path d="M3.88507 8.02578C3.82688 8.05814 3.80706 8.133 3.84242 8.18943C4.13577 8.65751 4.55445 9.04258 5.01087 9.34318C5.07318 9.38442 5.15482 9.38444 5.21719 9.34318C5.7597 8.98586 6.16046 8.55756 6.3869 8.19051C6.42214 8.1334 6.40174 8.05893 6.34303 8.02639C5.87787 7.76858 5.48353 7.37879 5.2178 6.87924C5.17346 6.79586 5.05471 6.79598 5.01051 6.87942C4.80644 7.26459 4.52432 7.58842 4.16801 7.84593C4.05643 7.92632 3.95616 7.98628 3.88507 8.02578Z" fill="#D85C27"/>
<path d="M4.75644 6.26507C4.38259 6.07176 4.00167 5.79125 3.67791 5.44653C3.64278 5.40913 3.58687 5.39931 3.54112 5.4225C2.80005 5.79786 2.0307 5.93692 1.34795 5.87765C1.2933 5.87291 1.24271 5.90682 1.22627 5.95915C1.05498 6.50436 1.03763 7.13498 1.17884 7.82175C1.19408 7.89514 1.25152 7.95258 1.32491 7.96782C2.84591 8.28024 4.28187 7.79284 4.81219 6.41064C4.83348 6.35508 4.80928 6.29241 4.75644 6.26507Z" fill="#D85C27"/>
<path d="M6.55002 5.44667C6.23129 5.78645 5.85679 6.06459 5.47127 6.26486C5.41847 6.29229 5.39449 6.35506 5.41587 6.41058C5.5939 6.87286 5.88594 7.25699 6.27997 7.54179C6.28278 7.54366 6.28536 7.54577 6.28817 7.54765C7.02831 8.07825 8.00026 8.15323 8.90308 7.9678C8.97647 7.95256 9.03391 7.89512 9.04915 7.82173C9.19013 7.13498 9.1728 6.50436 9.0017 5.95917C8.98531 5.90696 8.93483 5.87287 8.88029 5.87761C8.12529 5.94323 7.35932 5.76298 6.68675 5.42243C6.64101 5.39926 6.58511 5.40925 6.55002 5.44667Z" fill="#D85C27"/>
<path d="M5.6093 9.5305C6.07599 9.19553 6.46271 8.79445 6.75215 8.31207C6.78005 8.26558 6.83657 8.24474 6.88813 8.26159C7.26118 8.38351 7.65007 8.43512 8.03285 8.43512C8.1072 8.43512 8.18187 8.4327 8.24135 8.42996C8.30794 8.42689 8.36419 8.47997 8.36383 8.5466C8.36025 9.22121 8.09852 9.93199 7.59605 10.6081C7.56018 10.6563 7.50391 10.6838 7.44553 10.6838C7.36094 10.6838 6.92276 10.5536 6.60148 10.4074C6.22525 10.2363 5.87595 10.0042 5.59153 9.70564C5.54274 9.65446 5.55184 9.57177 5.6093 9.5305Z" fill="#D85C27"/>
</svg>
