<svg width="12" height="16" viewBox="0 0 12 16" fill="none" xmlns="http://www.w3.org/2000/svg">
<path d="M6.43385 1.75062C6.31037 0.764958 5.46726 0 4.44877 0C4.40219 0 4.35874 0.012817 4.32154 0.0350124C4.10343 0.163089 4.19465 0.500177 4.44877 0.500177C5.27288 0.500177 5.9493 1.16976 5.9493 2.00071V2.82688C5.9493 2.92751 6.04284 3.00097 6.14109 2.97921C6.26707 2.9513 6.3758 2.90187 6.44948 2.86195C6.512 2.82819 6.5492 2.80131 6.55014 2.80037C6.66112 2.71815 6.81774 2.74097 6.90027 2.85164C6.98279 2.96261 6.95966 3.11923 6.849 3.20176C6.83743 3.2102 6.64705 3.34994 6.3682 3.43559C6.08298 3.52281 5.81604 3.52294 5.53041 3.43559C5.25156 3.34994 5.06118 3.2102 5.04961 3.20176C4.93895 3.11923 4.91581 2.96261 4.99834 2.85164C5.08087 2.74097 5.23749 2.71784 5.34847 2.80037C5.34847 2.80037 5.3485 2.80037 5.3485 2.8004C5.39239 2.82766 5.44913 2.7989 5.44916 2.74722C5.44947 2.20941 5.45169 2.01556 5.44578 1.90214C5.44134 1.81683 5.36904 1.75109 5.28366 1.75412C2.51899 1.85244 0.197266 4.09148 0.197266 7.00404C0.197266 7.12065 0.277607 7.22162 0.391084 7.24788C1.63546 7.5352 2.96734 7.22087 4.07239 6.53231C4.54243 7.15278 5.15549 7.64686 5.8402 7.97783C5.90657 8.00981 5.98644 8.0125 6.0584 7.97783C6.73042 7.65299 7.34786 7.16394 7.82622 6.53231C8.9303 7.22043 10.2608 7.53542 11.5075 7.24757C11.621 7.22162 11.7013 7.12033 11.7013 7.00404C11.7013 4.04906 9.29908 1.75581 6.43385 1.75062Z" fill="#D2B051"/>
<path d="M7.54432 14.253C7.62963 14.2941 7.65808 14.4006 7.60637 14.4799C7.24759 15.0306 6.73388 15.5322 6.08674 15.9587C6.00359 16.0137 5.89474 16.0137 5.81165 15.9587C5.16448 15.5324 4.65073 15.0309 4.29195 14.4799C4.24028 14.4005 4.26872 14.2941 4.354 14.253C4.98798 13.9472 5.59235 13.3525 5.83609 13.096C5.89755 13.0312 6.00081 13.0312 6.06227 13.096C6.30604 13.3526 6.91038 13.9473 7.54432 14.253Z" fill="#D2B051"/>
<path d="M5.29283 12.7073C4.67057 12.2607 4.15495 11.7259 3.76904 11.0827C3.73184 11.0207 3.65647 10.9929 3.58772 11.0154C3.09033 11.178 2.5718 11.2468 2.06143 11.2468C1.9623 11.2468 1.86274 11.2436 1.78343 11.2399C1.69465 11.2358 1.61965 11.3066 1.62012 11.3954C1.6249 12.2949 1.97387 13.2426 2.64383 14.144C2.69166 14.2084 2.76668 14.245 2.84452 14.245C2.95731 14.245 3.54155 14.0714 3.96992 13.8764C4.47157 13.6483 4.93729 13.3389 5.31652 12.9408C5.38158 12.8726 5.36945 12.7623 5.29283 12.7073Z" fill="#D2B051"/>
<path d="M4.31079 10.701C4.2332 10.7441 4.20678 10.844 4.25392 10.9192C4.64506 11.5433 5.20329 12.0567 5.81185 12.4575C5.89494 12.5125 6.00379 12.5125 6.08695 12.4575C6.8103 11.9811 7.34464 11.41 7.64656 10.9206C7.69355 10.8445 7.66635 10.7452 7.58807 10.7018C6.96785 10.3581 6.44207 9.83835 6.08776 9.17227C6.02865 9.06111 5.87031 9.06126 5.81138 9.17252C5.53929 9.68608 5.16312 10.1179 4.68805 10.4612C4.53928 10.5684 4.40557 10.6483 4.31079 10.701Z" fill="#D2B051"/>
<path d="M5.47261 8.35342C4.97415 8.09568 4.46625 7.72167 4.03457 7.26204C3.98774 7.21218 3.91318 7.19908 3.85219 7.23C2.86409 7.73048 1.83829 7.91589 0.92797 7.83687C0.8551 7.83055 0.787639 7.87576 0.765725 7.94553C0.537331 8.67247 0.514198 9.5133 0.702484 10.429C0.722803 10.5269 0.799393 10.6034 0.89724 10.6238C2.92524 11.0403 4.83986 10.3905 5.54695 8.54752C5.57534 8.47344 5.54307 8.38987 5.47261 8.35342Z" fill="#D2B051"/>
<path d="M7.86389 7.26223C7.43892 7.71526 6.93959 8.08612 6.42557 8.35315C6.35517 8.38972 6.32319 8.47341 6.3517 8.54743C6.58906 9.16381 6.97845 9.67599 7.50382 10.0557C7.50757 10.0582 7.51101 10.061 7.51476 10.0635C8.50161 10.771 9.79754 10.871 11.0013 10.6237C11.0992 10.6034 11.1757 10.5268 11.1961 10.429C11.384 9.51331 11.3609 8.67248 11.1328 7.94557C11.1109 7.87595 11.0436 7.83049 10.9709 7.83681C9.96426 7.92431 8.94296 7.68397 8.0462 7.22991C7.98521 7.19902 7.91069 7.21234 7.86389 7.26223Z" fill="#D2B051"/>
<path d="M6.60977 12.7073C7.23202 12.2607 7.74764 11.7259 8.13356 11.0827C8.17076 11.0207 8.24613 10.9929 8.31487 11.0154C8.81227 11.178 9.33079 11.2468 9.84116 11.2468C9.94029 11.2468 10.0399 11.2436 10.1192 11.2399C10.2079 11.2358 10.2829 11.3066 10.2825 11.3954C10.2777 12.2949 9.92872 13.2426 9.25877 14.144C9.21094 14.2084 9.13591 14.245 9.05807 14.245C8.94528 14.245 8.36104 14.0714 7.93267 13.8764C7.43103 13.6483 6.9653 13.3389 6.58607 12.9408C6.52102 12.8726 6.53315 12.7623 6.60977 12.7073Z" fill="#D2B051"/>
</svg>
