<svg width="12" height="17" viewBox="0 0 12 17" fill="none" xmlns="http://www.w3.org/2000/svg">
<path d="M4.884 10.896C4.884 10.3533 4.972 9.87667 5.148 9.466C5.324 9.05533 5.55133 8.68867 5.83 8.366C6.10867 8.04333 6.402 7.74267 6.71 7.464C7.03267 7.18533 7.33333 6.914 7.612 6.65C7.89067 6.386 8.118 6.10733 8.294 5.814C8.47 5.52067 8.558 5.19067 8.558 4.824C8.558 4.208 8.30867 3.70933 7.81 3.328C7.31133 2.94667 6.644 2.756 5.808 2.756C5.00133 2.756 4.29733 2.90267 3.696 3.196C3.10933 3.48933 2.618 3.90733 2.222 4.45L0.088 3.064C0.704 2.228 1.51067 1.57533 2.508 1.106C3.50533 0.621999 4.686 0.379999 6.05 0.379999C7.12067 0.379999 8.05933 0.541333 8.866 0.863999C9.67267 1.172 10.3033 1.62667 10.758 2.228C11.2127 2.81467 11.44 3.53333 11.44 4.384C11.44 4.97067 11.3447 5.484 11.154 5.924C10.978 6.364 10.7433 6.75267 10.45 7.09C10.1713 7.41267 9.87067 7.72067 9.548 8.014C9.22533 8.29267 8.91733 8.57133 8.624 8.85C8.34533 9.12867 8.118 9.42933 7.942 9.752C7.766 10.0747 7.678 10.456 7.678 10.896H4.884ZM6.292 16.154C5.77867 16.154 5.35333 15.9853 5.016 15.648C4.69333 15.3107 4.532 14.9073 4.532 14.438C4.532 13.9687 4.69333 13.5727 5.016 13.25C5.35333 12.9127 5.77867 12.744 6.292 12.744C6.80533 12.744 7.22333 12.9127 7.546 13.25C7.86867 13.5727 8.03 13.9687 8.03 14.438C8.03 14.9073 7.86867 15.3107 7.546 15.648C7.22333 15.9853 6.80533 16.154 6.292 16.154Z" fill="white"/>
</svg>
