<svg width="18" height="18" viewBox="0 0 18 18" fill="none" xmlns="http://www.w3.org/2000/svg">
<circle cx="9" cy="9" r="9" fill="#A3D4FF"/>
<path d="M14.8757 5.04528L13.8825 4.05208L13.2782 4.75981L11.8001 3.2817L11.4185 3.53391L9.70319 1.8186L9.17972 7.39758L5.47797 3.69588L4.42441 6.44295L2.44628 5.98093L4.42694 7.9616L2.65043 8.52965L4.66558 10.5448L2.29419 10.8308L4.08445 12.621L3.15629 13.233L7.85067 17.9273C8.22705 17.9753 8.61068 18 9.00007 18C13.9706 18 18.0001 13.9706 18.0001 9.00001C18.0001 8.61062 17.9754 8.22699 17.9274 7.85064L14.8438 4.76709L14.8757 5.04528Z" fill="#65B1FC"/>
<path d="M15.5538 5.98093L14.8438 4.76709L9.70316 7.77411V5.3786L11.8001 3.2817L10.8057 2.28734L9.70316 3.38988V1.8186H8.29691V3.38988L7.19437 2.28734L6.20001 3.2817L8.29691 5.3786V7.77411L6.22916 6.56459L5.47794 3.69588L4.11757 4.05212L4.51255 5.56042L3.15629 4.76709L2.44628 5.98093L3.80253 6.77426L2.29419 7.16924L2.65043 8.52965L5.51914 7.77843L7.60749 9.00001L5.51914 10.2216L2.65043 9.47036L2.29419 10.8308L3.80253 11.2257L2.44628 12.0191L3.15629 13.2329L4.51255 12.4396L4.11757 13.9479L5.47794 14.3041L6.22916 11.4354L8.29691 10.2259V12.6214L6.20001 14.7183L7.19437 15.7127L8.29691 14.6101V16.1814H9.70316V14.6101L10.8057 15.7127L11.8001 14.7183L9.70316 12.6214V10.2259L14.8438 13.2329L15.5538 12.0191L10.3926 9.00001L15.5538 5.98093Z" fill="white"/>
<path d="M8.99365 16.1814H9.70318V14.6101L10.8057 15.7127L11.8001 14.7183L9.70318 12.6214V10.2259L11.7709 11.4354L12.5221 14.3041L13.8825 13.9479L13.4875 12.4396L14.8438 13.2329L15.5538 12.0191L14.1976 11.2257L15.7059 10.8308L15.3497 9.47036L12.4809 10.2216L10.3926 9.00001L12.4809 7.77843L15.3497 8.52965L15.7059 7.16924L14.1976 6.77426L15.5538 5.98093L14.8438 4.76709L13.4875 5.56046L13.8825 4.05212L12.5221 3.69588L11.7709 6.56459L9.70318 7.77414V5.3786L11.8001 3.2817L10.8057 2.28734L9.70318 3.38988V1.8186H8.99365V16.1814Z" fill="#E9EDF5"/>
</svg>
