<svg width="56" height="50" viewBox="0 0 56 50" fill="none" xmlns="http://www.w3.org/2000/svg">
<path d="M35.9811 22.7722L34.8793 16.0058L39.5371 11.2302C40.6014 10.1409 39.9904 8.29277 38.4778 8.06238L32.1146 7.08823L29.2497 0.98792C28.6312 -0.329307 26.47 -0.329307 25.8515 0.98792L22.9867 7.08823L16.6234 8.06238C15.1058 8.29527 14.4998 10.1409 15.5641 11.2302L20.222 16.0058L19.1201 22.7722C18.8672 24.3224 20.52 25.4743 21.8823 24.718L27.5494 21.5852L33.219 24.718C34.5712 25.4718 36.2366 24.3324 35.9811 22.7722Z" fill="white"/>
<path d="M23.45 33.1047L17.0868 32.1306L14.2219 26.0302C13.6034 24.713 11.4422 24.713 10.8237 26.0302L7.95883 32.1306L1.59557 33.1047C0.0780048 33.3376 -0.528019 35.1832 0.536279 36.2726L5.19415 41.0481L4.09229 47.8146C3.83936 49.3572 5.48464 50.5216 6.85446 49.7604L12.524 46.6276L18.1936 49.7604C19.5459 50.5116 21.2112 49.3747 20.9558 47.8146L19.8539 41.0481L24.5118 36.2726C25.5736 35.1832 24.9651 33.3376 23.45 33.1047Z" fill="white"/>
<path d="M53.5008 33.1047L47.1375 32.1306L44.2727 26.0302C43.6541 24.713 41.493 24.713 40.8744 26.0302L38.0096 32.1306L31.6464 33.1047C30.1288 33.3376 29.5228 35.1832 30.5871 36.2726L35.2449 41.0481L34.1431 47.8146C33.8901 49.3597 35.5379 50.5216 36.9052 49.7604L42.5748 46.6276L48.2444 49.7604C49.5967 50.5116 51.262 49.3747 51.0066 47.8146L49.9047 41.0481L54.5626 36.2726C55.6244 35.1832 55.0159 33.3376 53.5008 33.1047Z" fill="white"/>
</svg>
