<svg width="9" height="9" viewBox="0 0 9 9" fill="none" xmlns="http://www.w3.org/2000/svg">
<path d="M8.64528 3.04185C8.54402 2.96264 8.42124 2.91579 8.29296 2.90741L5.97301 2.74506L5.11241 0.578003C5.06584 0.458198 4.98416 0.355256 4.87808 0.282666C4.772 0.210077 4.64647 0.171226 4.51793 0.171204H4.51732C4.38898 0.171433 4.2637 0.210383 4.15785 0.282962C4.052 0.35554 3.97052 0.458369 3.92406 0.578003L3.05065 2.75757L0.743517 2.90741C0.615233 2.91579 0.492452 2.96264 0.391195 3.04185C0.289939 3.12106 0.214907 3.22895 0.17589 3.35144C0.134729 3.47567 0.131929 3.60942 0.167854 3.73527C0.203779 3.86111 0.276764 3.97323 0.377306 4.05701L2.15221 5.55725L1.62425 7.63397C1.58786 7.77386 1.59456 7.92147 1.64345 8.05749C1.69235 8.19351 1.78118 8.3116 1.8983 8.3963C2.01138 8.47857 2.14661 8.5249 2.28639 8.52926C2.42616 8.53361 2.56401 8.49579 2.68199 8.42072L4.51305 7.26074C4.51549 7.25891 4.51793 7.25769 4.52342 7.26074L6.49364 8.50891C6.6006 8.57725 6.7257 8.61171 6.85256 8.60779C6.97943 8.60387 7.10216 8.56175 7.2047 8.48694C7.31083 8.41022 7.39132 8.30325 7.43564 8.18003C7.47997 8.0568 7.48606 7.92307 7.45311 7.79633L6.8922 5.52765L8.65917 4.05701C8.75971 3.97323 8.83269 3.86111 8.86862 3.73527C8.90454 3.60942 8.90174 3.47567 8.86058 3.35144C8.82156 3.22895 8.74653 3.12106 8.64528 3.04185Z" fill="#F7C531"/>
</svg>
