<svg width="20" height="20" viewBox="0 0 20 20" fill="none" xmlns="http://www.w3.org/2000/svg">
<g opacity="0.3">
<path fill-rule="evenodd" clip-rule="evenodd" d="M0.0256525 5.06024V5.49398C0.0256525 5.65367 0.155112 5.78313 0.314809 5.78313H17.0859C17.2456 5.78313 17.375 5.65367 17.375 5.49398V5.06024C17.4887 4.2639 17.2208 3.46053 16.652 2.89173C16.0832 2.32292 15.2798 2.05505 14.4835 2.16867H13.2787V0.722892C13.2787 0.32365 12.955 0 12.5558 0C12.1565 0 11.8329 0.32365 11.8329 0.722892V2.16867H5.56782V0.722892C5.56782 0.32365 5.24417 0 4.84493 0C4.44569 0 4.12204 0.32365 4.12204 0.722892V2.16867H2.91722C2.12088 2.05505 1.3175 2.32292 0.748703 2.89173C0.179901 3.46053 -0.0879679 4.2639 0.0256525 5.06024ZM10.1558 15.894C10.3213 13.1807 12.4853 11.0175 15.1987 10.853C15.8071 10.8225 16.4163 10.8975 16.9991 11.0747C17.086 11.102 17.1806 11.0869 17.2546 11.0338C17.3286 10.9807 17.3732 10.8958 17.375 10.8048V7.51807C17.375 7.35838 17.2456 7.22892 17.0859 7.22892H0.314809C0.155112 7.22892 0.0256525 7.35838 0.0256525 7.51807V15.1807C-0.0879679 15.9771 0.179901 16.7804 0.748703 17.3492C1.3175 17.918 2.12088 18.1859 2.91722 18.0723H10.1076C10.1986 18.0704 10.2834 18.0258 10.3365 17.9518C10.3896 17.8779 10.4048 17.7832 10.3775 17.6964C10.2003 17.1128 10.1253 16.5031 10.1558 15.894ZM4.86421 15.1807C4.33188 15.1834 3.89819 14.754 3.89553 14.2217C3.89287 13.6894 4.32225 13.2557 4.85457 13.253H4.86421C5.39653 13.253 5.82806 13.6845 5.82806 14.2169C5.82806 14.7492 5.39653 15.1807 4.86421 15.1807ZM3.89553 10.3663C3.89819 10.8986 4.33188 11.328 4.86421 11.3253C5.39653 11.3253 5.82806 10.8938 5.82806 10.3614C5.82806 9.82912 5.39653 9.39759 4.86421 9.39759H4.85457C4.32225 9.40025 3.89287 9.83394 3.89553 10.3663ZM8.71963 11.3253C8.18731 11.328 7.75362 10.8986 7.75095 10.3663C7.74829 9.83394 8.17767 9.40025 8.70999 9.39759H8.71963C9.25195 9.39759 9.68348 9.82912 9.68348 10.3614C9.68348 10.8938 9.25195 11.3253 8.71963 11.3253ZM15.4473 12.2892C13.318 12.2892 11.5919 14.0153 11.5919 16.1446C11.5919 18.2739 13.318 20 15.4473 20C17.5766 20 19.3028 18.2739 19.3028 16.1446C19.3028 14.0153 17.5766 12.2892 15.4473 12.2892ZM16.1394 17.5171C16.3276 17.7052 16.6326 17.7052 16.8208 17.5171C17.009 17.3289 17.009 17.0239 16.8208 16.8357L15.9293 15.9451V14.6988C15.9293 14.4326 15.7135 14.2169 15.4473 14.2169C15.1812 14.2169 14.9654 14.4326 14.9654 14.6988V16.1446C14.9652 16.2725 15.0158 16.3952 15.1061 16.4858L16.1394 17.5171Z" fill="black"/>
</g>
</svg>
