<svg width="10" height="12" viewBox="0 0 10 12" fill="none" xmlns="http://www.w3.org/2000/svg">
<path d="M3.81646 0H6.42102C7.21566 0 7.21636 1.19467 6.42102 1.19467H3.81646C3.02182 1.19467 3.02112 0 3.81646 0Z" fill="#D85C27"/>
<path d="M6.63203 4.64191C6.40391 3.98698 6.25742 3.38067 6.25742 2.90561V1.60837H3.98001V2.90561C3.98001 3.21399 3.91817 3.57776 3.8125 3.9741C5.12821 3.64276 5.82765 4.78203 6.63203 4.64191Z" fill="#D85C27"/>
<path d="M5.6607 8.5494C5.46523 8.37594 5.03052 8.43534 5.03052 8.82692V9.62655C5.03052 9.89921 5.22999 9.99599 5.40081 9.99599C5.57181 9.99599 5.77149 9.89924 5.77149 9.62655V8.82692C5.77149 8.70803 5.73422 8.61465 5.6607 8.5494Z" fill="#D85C27"/>
<path fill-rule="evenodd" clip-rule="evenodd" d="M9.22434 9.73317C8.96357 9.3837 7.555 7.06105 6.77613 5.03465C6.25364 5.15872 5.84451 4.93654 5.42579 4.70914C4.95271 4.45223 4.46737 4.18866 3.79243 4.41027C3.77525 4.4159 3.76159 4.42077 3.74997 4.42491L3.74997 4.42491L3.74996 4.42491C3.71905 4.43592 3.70251 4.44181 3.67235 4.44352C2.97268 6.58167 1.29974 9.34909 1.01313 9.73317C0.480375 10.448 0.944858 12 2.4265 12H7.81098C9.29262 12 9.7571 10.448 9.22434 9.73317ZM5.0305 6.80936C5.14576 6.80936 5.23765 6.90259 5.23765 7.01625C5.23765 7.13051 5.14501 7.22315 5.03076 7.22315C4.9165 7.22315 4.82373 7.13051 4.82373 7.01625C4.82373 6.90199 4.91624 6.80936 5.0305 6.80936ZM2.79105 10.0884C2.94581 10.2903 3.21276 10.4109 3.5051 10.4109C3.9706 10.4109 4.34932 10.0989 4.34932 9.7154C4.34932 9.18688 3.86601 9.08886 3.54622 9.02403C3.1584 8.94538 3.07468 8.89464 3.07468 8.7382C3.07468 8.58812 3.27584 8.45648 3.50513 8.45648C3.66716 8.45648 3.81493 8.51793 3.89076 8.61685C3.96028 8.70753 4.0901 8.7247 4.18085 8.65518C4.2715 8.58566 4.2887 8.45578 4.21918 8.36511C4.06442 8.16321 3.7975 8.04266 3.50513 8.04266C3.03961 8.04266 2.66089 8.35466 2.66089 8.73817C2.66089 9.26669 3.1442 9.36471 3.46398 9.42954C3.85181 9.50819 3.93553 9.55893 3.93553 9.71537C3.93553 9.86545 3.73437 9.99709 3.5051 9.99709C3.34308 9.99709 3.1953 9.93561 3.11947 9.83669C3.04993 9.74599 2.92005 9.72884 2.82938 9.79836C2.73871 9.86788 2.72154 9.99773 2.79105 10.0884ZM4.34179 5.85734C4.22753 5.85734 4.13477 5.7647 4.13477 5.65044C4.13477 5.53618 4.22727 5.44354 4.34153 5.44354C4.4568 5.44354 4.54869 5.53678 4.54869 5.65044C4.54869 5.7647 4.45605 5.85734 4.34179 5.85734ZM5.40079 10.4098C5.7906 10.4098 6.18526 10.1408 6.18526 9.62656V8.82693C6.18526 8.31272 5.79081 8.0437 5.40117 8.0437C5.01135 8.0437 4.6167 8.31274 4.6167 8.82693V9.62656C4.6167 10.1408 5.01115 10.4098 5.40079 10.4098ZM6.13818 6.76264C6.02392 6.76264 5.93115 6.67 5.93115 6.55574C5.93115 6.44148 6.02366 6.34885 6.13792 6.34885C6.25319 6.34885 6.34507 6.44208 6.34507 6.55574C6.34507 6.67 6.25244 6.76264 6.13818 6.76264ZM7.71412 10.9915C7.71412 10.8773 7.62148 10.7846 7.50722 10.7846V10.7846H6.91028C6.95975 10.6891 7.05735 10.6429 7.21061 10.5778C7.41112 10.4925 7.71412 10.3637 7.71412 9.95958C7.71412 9.57946 7.43228 9.32544 7.08534 9.32544C6.78089 9.32544 6.4573 9.54462 6.4573 9.95081C6.4573 10.0651 6.54994 10.1577 6.6642 10.1577C6.77846 10.1577 6.87109 10.0651 6.87109 9.95081C6.87109 9.74945 7.04954 9.73923 7.08534 9.73923C7.20932 9.73923 7.30033 9.81369 7.30033 9.95958C7.30033 10.073 7.2674 10.104 7.04872 10.197L7.04871 10.197C6.81318 10.2971 6.45728 10.4485 6.45728 10.9915C6.45728 11.1058 6.54991 11.1984 6.66417 11.1984H7.50722C7.62148 11.1984 7.71412 11.1058 7.71412 10.9915Z" fill="#D85C27"/>
</svg>
