<svg width="20" height="24" viewBox="0 0 20 24" fill="none" xmlns="http://www.w3.org/2000/svg">
<path fill-rule="evenodd" clip-rule="evenodd" d="M7.20101 0.398457C7.2008 0.192814 7.35616 0.020568 7.57993 6.73447e-06H12.7988C13.02 -0.00126323 13.2004 0.177242 13.2012 0.398457V1.71022C13.3768 1.76876 13.5305 1.83939 13.8535 2.07898C14.3262 2.4295 14.8194 3.06675 14.8012 3.99936H13.2004C13.2004 4.32755 13.2007 4.67446 13.201 5.02856V5.02921V5.02986V5.03049V5.03111V5.0327V5.03298V5.03328V5.03359C13.2014 5.62035 13.2019 6.2267 13.2012 6.80023C13.2012 7.4589 12.6567 7.99948 11.9988 7.99948H11.6004V5.99317C11.6004 5.77676 11.4284 5.59921 11.2121 5.59316C10.9866 5.58658 10.8003 5.7676 10.8003 5.99317V7.99948H9.99954V5.99317C9.99958 5.77676 9.82755 5.59921 9.61124 5.59316C9.38578 5.58658 9.19947 5.7676 9.19951 5.99317V7.99948H8.39948V5.99317C8.39952 5.77676 8.2275 5.59921 8.01119 5.59316C7.78573 5.58658 7.59942 5.7676 7.59946 5.99317V7.99948H7.20101C6.5431 7.99948 5.99863 7.4589 5.99863 6.80101V3.99857C5.99863 3.09855 6.35375 2.48014 6.71662 2.11726C6.94891 1.88502 7.05487 1.81805 7.20101 1.7485V0.398457ZM2.40008 6.79944C2.40008 5.69832 3.29902 4.79939 4.40014 4.79939H5.19861L5.20016 6.91195C4.96241 7.05026 4.80015 7.30351 4.80015 7.59947V8.3995C4.80015 8.8427 5.15696 9.19952 5.60018 9.19952H13.6004C14.0436 9.19952 14.4005 8.8427 14.4005 8.3995V7.59947C14.4005 7.30342 14.239 7.04872 14.0012 6.91038V4.79939H14.8005C15.9016 4.79939 16.8005 5.69832 16.8005 6.79944V10.3996H2.40008V6.79944ZM1.83443 11.1996L0.234383 12.7996H18.9662L17.3662 11.1996H1.83443ZM17.6006 24H1.60005C0.719691 24 0.000876122 23.2724 0.000800076 22.416L0 13.5997H19.2006V22.3999C19.2006 23.2794 18.4801 24 17.6006 24ZM9.60108 14.8005C10.2591 14.8005 10.7996 15.3409 10.7996 15.9989C10.7996 16.1818 10.7546 16.3539 10.68 16.5099C11.9366 16.7752 12.6987 17.4912 13.1004 18.2053C13.298 18.5561 13.4161 18.9046 13.4887 19.2014H5.71346C5.78603 18.9046 5.90443 18.5561 6.10176 18.2053C6.50319 17.4917 7.26472 16.7764 8.5198 16.5107C8.44481 16.3545 8.39949 16.182 8.39949 15.9989C8.39949 15.3409 8.94306 14.8005 9.60108 14.8005ZM14.0012 20.0014H5.18063C4.95523 20.0219 4.80002 20.1938 4.80015 20.3991C4.8 21.2781 5.52069 21.9991 6.4002 21.9991H12.802C13.6815 21.9991 14.3995 21.2781 14.3997 20.3991C14.399 20.1798 14.2211 20.0022 14.0012 20.0014Z" fill="white"/>
</svg>
