<svg width="26" height="25" viewBox="0 0 26 25" fill="none" xmlns="http://www.w3.org/2000/svg">
<path d="M11.7645 0.910247C12.1953 1.19593 12.9003 1.19593 13.3305 0.910247L14.4683 0.154307C14.8989 -0.131769 15.4776 -0.00831065 15.7545 0.428325L16.4863 1.58248C16.7632 2.01887 17.4069 2.30543 17.9165 2.21922L19.2635 1.99098C19.7732 1.90467 20.2523 2.25231 20.3273 2.76373L20.5271 4.11314C20.6028 4.62467 21.0738 5.14913 21.5747 5.27813L22.8965 5.61904C23.3975 5.74853 23.6933 6.26192 23.5541 6.75982L23.188 8.07169C23.049 8.56954 23.2664 9.24015 23.6716 9.56161L24.7445 10.4128C25.1496 10.7342 25.211 11.3228 24.8814 11.7214L24.0103 12.7729C23.6808 13.1711 23.6072 13.872 23.8465 14.3302L24.4791 15.5396C24.7185 15.9981 24.536 16.5612 24.0729 16.791L22.8492 17.3984C22.3861 17.6284 22.034 18.2389 22.0663 18.7548L22.1508 20.117C22.1835 20.6327 21.7869 21.0732 21.2701 21.0953L19.9061 21.153C19.3896 21.1751 18.8196 21.5897 18.6391 22.0745L18.1646 23.3529C17.984 23.8378 17.4433 24.079 16.9626 23.8888L15.6917 23.3864C15.2113 23.196 14.5219 23.3425 14.1601 23.712L13.2056 24.6868C12.8436 25.0561 12.2518 25.0561 11.8896 24.6873L10.9336 23.7118C10.5715 23.3427 9.88211 23.1963 9.40141 23.3865L8.1312 23.8888C7.65056 24.0792 7.10977 23.838 6.92961 23.353L6.45396 22.0746C6.27365 21.5899 5.70366 21.1752 5.18699 21.1531L3.82341 21.0954C3.30659 21.0733 2.91049 20.6328 2.94274 20.1171L3.02807 18.7549C3.06017 18.2391 2.70763 17.6285 2.24463 17.3985L1.02132 16.7911C0.558369 16.5613 0.375315 15.9983 0.61483 15.5397L1.24746 14.3303C1.48683 13.8721 1.41321 13.1713 1.08322 12.7734L0.21206 11.7205C-0.117684 11.3226 -0.0559302 10.734 0.348947 10.4125L1.42218 9.56137C1.82706 9.2399 2.04476 8.56968 1.90587 8.07159L1.53888 6.75918C1.39988 6.26133 1.69571 5.74829 2.19621 5.61958L3.51901 5.27793C4.0195 5.14908 4.49113 4.62462 4.56666 4.11309L4.76628 2.76368C4.84195 2.25226 5.32074 1.90462 5.83035 1.99093L7.1775 2.21918C7.68726 2.30538 8.33082 2.01882 8.60734 1.58243L9.33883 0.428276C9.61534 -0.00835964 10.1944 -0.131818 10.6254 0.154258L11.7645 0.910247Z" fill="#90DEA9"/>
<path d="M20.6653 12.4955C20.6653 16.9794 17.0302 20.6142 12.5467 20.6142C8.06352 20.6142 4.42834 16.9794 4.42834 12.4955C4.42834 8.01308 8.06337 4.3782 12.5467 4.3782C17.0302 4.3782 20.6653 8.01308 20.6653 12.4955Z" fill="#71BF8C"/>
<path d="M11.1932 16.288L7.9436 13.0383L9.02625 11.9551L11.1932 14.1217L16.0674 9.24692L17.15 10.3304L11.1932 16.288Z" fill="white"/>
</svg>
