<svg width="17" height="14" viewBox="0 0 17 14" fill="none" xmlns="http://www.w3.org/2000/svg">
<path fill-rule="evenodd" clip-rule="evenodd" d="M15.1541 2.13727C15.8572 1.74572 15.8894 1.47052 16.1436 0.730612C15.4854 1.0936 14.756 1.35765 13.9802 1.49978C13.3603 0.885282 12.475 0.5 11.4952 0.5C9.61372 0.5 8.08902 1.91851 8.08902 3.66586C8.08902 3.91389 8.119 4.15565 8.17672 4.38766C5.3462 4.25598 2.83577 2.99562 1.1559 1.07966C0.862799 1.54716 0.694887 2.09129 0.694887 2.67165C0.694887 3.77037 1.29682 4.7388 2.20984 5.30662C1.65139 5.2899 1.12666 5.14777 0.667901 4.91089C0.667151 4.92412 0.667151 4.93666 0.667151 4.9506C0.667151 6.48476 1.84104 7.76392 3.40022 8.05515C2.90098 8.18125 2.37476 8.20076 1.86128 8.11019C2.2953 9.36706 3.55314 10.2825 5.04336 10.3083C3.58537 11.3701 1.77807 11.8125 0 11.6188C1.50821 12.5169 3.29752 13.0408 5.22177 13.0408C11.487 13.0408 14.9127 8.21679 14.9127 4.03303C14.9127 3.89508 14.9105 3.75922 14.9037 3.62336C15.5686 3.17747 16.3677 2.76153 16.8242 2.12613C16.214 2.37903 15.6998 2.38739 15.1541 2.13727Z" fill="black"/>
</svg>
