<svg width="18" height="18" viewBox="0 0 18 18" fill="none" xmlns="http://www.w3.org/2000/svg">
<path d="M8.99992 7.36443C12.5102 7.36443 15.3661 4.50856 15.3661 0.998291C15.3661 0.723236 15.1431 0.500244 14.868 0.500244C12.2325 0.500244 9.96594 2.11016 8.99992 4.39819C8.03391 2.11016 5.76737 0.500244 3.13184 0.500244C2.85678 0.500244 2.63379 0.723236 2.63379 0.998291C2.63379 4.50859 5.48962 7.36443 8.99992 7.36443Z" fill="#C397C5"/>
<path fill-rule="evenodd" clip-rule="evenodd" d="M13.4988 14.8684C13.4988 15.1434 13.2758 15.3664 13.0008 15.3664C12.7257 15.3664 12.5027 15.1434 12.5027 14.8684V14.1217H11.8984V14.8684C11.8742 15.528 10.9268 15.5285 10.9023 14.8684V11.9343C10.9672 10.2153 13.4334 10.2139 13.4988 11.9343V14.8684ZM11.8984 11.9343V13.1256H12.5027V11.9343C12.4887 11.5346 11.9127 11.5343 11.8984 11.9343Z" fill="#C397C5"/>
<path d="M17.002 10.6361C16.7269 10.6361 16.5039 10.8591 16.5039 11.1341V12.9929L15.3006 10.887C15.1885 10.6909 14.9585 10.5947 14.7403 10.6527C14.5221 10.7107 14.3701 10.9082 14.3701 11.1341V14.8683C14.3946 15.5284 15.3419 15.5279 15.3662 14.8683V13.0095L16.5696 15.1155C16.6187 15.2014 16.8125 15.434 17.1298 15.3497C17.3481 15.2918 17.5 15.0942 17.5 14.8684V11.1341C17.5 10.859 17.2771 10.6361 17.002 10.6361Z" fill="#C397C5"/>
<path d="M6.33281 11.6321C6.99292 11.6076 6.99243 10.6603 6.33281 10.636H4.73242C4.45737 10.636 4.23438 10.859 4.23438 11.1341V14.8684C4.23438 15.1434 4.45737 15.3664 4.73242 15.3664H6.33281C6.99292 15.3419 6.99243 14.3946 6.33281 14.3703H5.23047V13.4993H5.79934C6.45945 13.4747 6.45895 12.5274 5.79934 12.5032H5.23047V11.6321H6.33281Z" fill="#C397C5"/>
<path d="M2.65316 10.9973L2.06513 13.0554L1.47707 10.9973C1.4015 10.7328 1.12581 10.5795 0.86135 10.6552C0.596887 10.7308 0.443721 11.0064 0.519292 11.2709L1.58624 15.0052C1.72476 15.4836 2.40563 15.4833 2.54402 15.0052L3.61093 11.2709C3.68647 11.0064 3.53334 10.7307 3.26888 10.6552C3.00445 10.5798 2.72873 10.7328 2.65316 10.9973Z" fill="#C397C5"/>
<path d="M9.53313 12.5656C9.80818 12.5656 10.0312 12.3424 10.0312 12.0674C9.95919 10.1708 7.23946 10.1719 7.16797 12.0677V13.9348C7.24019 15.8319 9.95965 15.8305 10.0312 13.9348V13.5347C10.0312 13.2596 9.80818 13.0366 9.53313 13.0366H9.06636C8.43161 13.0559 8.39698 13.9602 9.02436 14.031C8.90014 14.5306 8.17668 14.4544 8.16403 13.9348V12.0677C8.18584 11.491 9.01323 11.4906 9.03505 12.0674V12.0677C9.03508 12.3427 9.25807 12.5656 9.53313 12.5656Z" fill="#C397C5"/>
<path d="M17.0017 16.5042H0.997826C0.337715 16.5287 0.338213 17.476 0.997826 17.5002H17.0017C17.6618 17.4757 17.6613 16.5284 17.0017 16.5042Z" fill="#C397C5"/>
<path d="M0.997826 9.49829H17.0017C17.6618 9.47379 17.6613 8.52647 17.0017 8.5022H0.997826C0.337715 8.5267 0.338213 9.47402 0.997826 9.49829Z" fill="#C397C5"/>
</svg>
