<svg width="17" height="18" viewBox="0 0 17 18" fill="none" xmlns="http://www.w3.org/2000/svg">
<path d="M15.9196 0.900289C15.8717 0.71328 15.724 0.569835 15.5392 0.520958C15.35 0.471018 15.1535 0.529458 15.0196 0.66759C15.01 0.677153 14.109 1.58989 11.0998 2.74382C10.0447 3.14759 9.27753 3.91369 8.93858 4.89867C8.72076 5.52983 8.61663 6.48507 9.08521 7.70913C11.1519 5.3152 13.5809 4.64897 13.6117 4.61816C12.0009 5.61484 9.6643 8.83118 9.6643 8.83118C8.94496 10.4771 8.48912 12.1676 8.21392 13.5787C5.81361 2.81501 1.28926 0.643151 1.081 0.547522C0.81324 0.427453 0.498724 0.545397 0.376531 0.812097C0.2554 1.0788 0.374406 1.39438 0.641106 1.51551C0.692109 1.53782 5.74986 3.97213 7.78571 17.0511C7.82609 17.3104 8.05029 17.5005 8.31061 17.5005C8.32124 17.5005 8.3308 17.5005 8.34036 17.4995C8.61344 17.4835 8.8302 17.2647 8.84189 16.9926C8.84401 16.9385 9.04165 12.8859 10.6663 9.19351C10.8841 9.22645 11.1253 9.25302 11.4069 9.25302C12.6139 9.25302 14.3077 8.81524 15.6475 6.77727C15.6582 6.76239 15.6677 6.74645 15.6752 6.73052C16.8238 4.50872 15.9567 1.04692 15.9196 0.900289Z" fill="white"/>
</svg>
