<svg width="16" height="13" viewBox="0 0 16 13" fill="none" xmlns="http://www.w3.org/2000/svg">
<path fill-rule="evenodd" clip-rule="evenodd" d="M15.942 3.27444C15.8726 4.62683 14.7866 6.47554 12.6915 8.82139C10.5233 11.2743 8.68607 12.5 7.18463 12.5C6.25619 12.5 5.46936 11.7543 4.82695 10.258C4.39649 8.88516 3.96885 7.51233 3.53933 6.14358C3.06104 4.64646 2.54899 3.89831 2.0013 3.89831C1.8822 3.89831 1.46675 4.11662 0.750255 4.55406L0 3.71106C0.785892 3.11009 1.56053 2.50666 2.32485 1.90487C3.37146 1.11502 4.15829 0.700471 4.68347 0.657135C5.92139 0.552476 6.68477 1.29082 6.97268 2.8697C7.27935 4.5745 7.49504 5.63418 7.61415 6.04955C7.97239 7.46245 8.3644 8.16726 8.79392 8.16726C9.12685 8.16726 9.62764 7.71101 10.2954 6.7977C10.9631 5.88275 11.3185 5.18774 11.3673 4.7086C11.463 3.91875 11.1056 3.52627 10.2954 3.52627C9.91368 3.52627 9.51979 3.59659 9.11559 3.74377C9.90336 1.52058 11.4039 0.43964 13.6209 0.502599C15.263 0.542664 16.0386 1.46825 15.942 3.27444Z" fill="black"/>
</svg>
